<svg width="637" height="195" viewBox="0 0 637 195" fill="none" xmlns="http://www.w3.org/2000/svg">
<rect width="637" height="195" rx="4" fill="white"/>
<path d="M0 91H637" stroke="#657396"/>
<path d="M0 169H637" stroke="#657396"/>
<path d="M0 52H637" stroke="#657396"/>
<path d="M0 130H637" stroke="#657396"/>
<path d="M0 26H637" stroke="#657396"/>
<path d="M0 104H637" stroke="#657396"/>
<path d="M0 182H637" stroke="#657396"/>
<path d="M0 64.9999H637" stroke="#657396"/>
<path d="M0 143H637" stroke="#657396"/>
<path d="M0 39H637" stroke="#657396"/>
<path d="M0 78H637" stroke="#657396"/>
<path d="M0 156H637" stroke="#657396"/>
<path d="M12.9999 195L12.9999 -4.72069e-05" stroke="#657396"/>
<path d="M429 195V-4.72069e-05" stroke="#657396"/>
<path d="M221 195L221 -4.72069e-05" stroke="#657396"/>
<path d="M117 195L117 -4.72069e-05" stroke="#657396"/>
<path d="M533 195V-4.72069e-05" stroke="#657396"/>
<path d="M325 195V-4.72069e-05" stroke="#657396"/>
<path d="M65 195L65 -4.72069e-05" stroke="#657396"/>
<path d="M481 195V-4.72069e-05" stroke="#657396"/>
<path d="M273 195V-4.72069e-05" stroke="#657396"/>
<path d="M169 195L169 -4.72069e-05" stroke="#657396"/>
<path d="M585 195V-4.72069e-05" stroke="#657396"/>
<path d="M377 195V-4.72069e-05" stroke="#657396"/>
<path d="M39 195L39 -4.72069e-05" stroke="#657396"/>
<path d="M455 195V-4.72069e-05" stroke="#657396"/>
<path d="M247 195L247 -4.72069e-05" stroke="#657396"/>
<path d="M143 195L143 -4.72069e-05" stroke="#657396"/>
<path d="M559 195V-4.72069e-05" stroke="#657396"/>
<path d="M351 195V-4.72069e-05" stroke="#657396"/>
<path d="M91.0001 195L91.0001 -4.95911e-05" stroke="#657396"/>
<path d="M507 195V-4.72069e-05" stroke="#657396"/>
<path d="M299 195V-4.72069e-05" stroke="#657396"/>
<path d="M195 195L195 -4.72069e-05" stroke="#657396"/>
<path d="M403 195V-4.72069e-05" stroke="#657396"/>
<path d="M26 195L26 -4.72069e-05" stroke="#657396"/>
<path d="M442 195V-4.72069e-05" stroke="#657396"/>
<path d="M234 195L234 -4.72069e-05" stroke="#657396"/>
<path d="M130 195L130 -4.72069e-05" stroke="#657396"/>
<path d="M546 195V-4.72069e-05" stroke="#657396"/>
<path d="M338 195V-4.72069e-05" stroke="#657396"/>
<path d="M78 195L78 -4.72069e-05" stroke="#657396"/>
<path d="M494 195V-4.72069e-05" stroke="#657396"/>
<path d="M286 195V-4.72069e-05" stroke="#657396"/>
<path d="M182 195L182 -4.72069e-05" stroke="#657396"/>
<path d="M598 195V-4.72069e-05" stroke="#657396"/>
<path d="M611 195V-4.72069e-05" stroke="#657396"/>
<path d="M624 195V-4.72069e-05" stroke="#657396"/>
<path d="M390 195V-4.72069e-05" stroke="#657396"/>
<path d="M52 195L52 -4.72069e-05" stroke="#657396"/>
<path d="M468 195V-4.72069e-05" stroke="#657396"/>
<path d="M260 195V-4.72069e-05" stroke="#657396"/>
<path d="M156 195L156 -4.72069e-05" stroke="#657396"/>
<path d="M572 195V-4.72069e-05" stroke="#657396"/>
<path d="M364 195V-4.72069e-05" stroke="#657396"/>
<path d="M104 195L104 -4.72069e-05" stroke="#657396"/>
<path d="M520 195V-4.72069e-05" stroke="#657396"/>
<path d="M312 195V-4.72069e-05" stroke="#657396"/>
<path d="M208 195L208 -4.72069e-05" stroke="#657396"/>
<path d="M416 195V-4.72069e-05" stroke="#657396"/>
<path d="M0 91H637" stroke="#657396"/>
<path d="M0 169H637" stroke="#657396"/>
<path d="M0 26H637" stroke="#657396"/>
<path d="M0 13H637" stroke="#657396"/>
<path d="M0 104H637" stroke="#657396"/>
<path d="M0 182H637" stroke="#657396"/>
<path d="M0 117H637" stroke="#657396"/>
<path d="M14.2492 25.1873L12.9999 26.7488L38.6092 46.4242L32.2833 47.2863L32.5957 49.7847L42.3569 48.2981C29.24 62.6642 32.0428 83.1116 41.7323 93.8951C61.0954 115.444 88.2526 104.495 92.625 96.6873L93.0966 107.656L95.8615 107.344L95.137 101.078C119.497 122.315 143.794 122.715 165.344 117.406C170.028 137.394 200.697 151.984 222.871 131.372C240.508 114.977 233.49 92.3335 225.057 82.9643C202.571 60.7904 179.003 73.9373 170.878 83.6873V74.167H168.692L168.842 80.7781C141.359 63.6012 118.56 59.5412 100.759 56.4181C98.5724 51.1088 91.7016 40.178 76.3985 37.055C57.0354 33.1033 48.8113 41.9478 43.2938 47.0488L41.7154 37.9136L39.2169 38.2259L40.1707 44.5504L14.2492 25.1873Z" stroke="white" stroke-width="1.6"/>
<path d="M102.946 95.9104C98.574 96.2227 94.0127 96.3937 93.2632 96.3937C105.756 83.9014 104.78 67.0368 101.969 59.5414C121.957 60.7906 154.124 73.2829 166.929 82.3399L160.666 82.4542V85.2649L170.403 84.8383C163.845 92.3337 161.659 106.075 164.469 114.82C133.738 123.565 106.692 108.053 97.3232 99.2045L102.946 98.7212V95.9104Z" stroke="white" stroke-width="1.6"/>
<circle cx="68.5908" cy="71.0968" r="34.1785" fill="#FFF6C5" stroke="black" stroke-width="1.6"/>
<circle cx="198.511" cy="106.075" r="34.1785" fill="#FFF6C5" stroke="black" stroke-width="1.6"/>
<path d="M170.121 84.3886C170.563 84.372 170.907 84.0006 170.89 83.5591L170.62 76.3642C170.603 75.9227 170.232 75.5782 169.791 75.5948C169.349 75.6114 169.005 75.9828 169.021 76.4243L169.261 82.8198L162.866 83.0601C162.424 83.0767 162.08 83.4481 162.097 83.8896C162.113 84.3311 162.485 84.6756 162.926 84.659L170.121 84.3886ZM99.5312 58.0938L99.4677 58.8912C110.722 59.7882 125.428 63.4853 138.761 68.2922C152.122 73.1093 163.953 78.9869 169.547 84.1757L170.091 83.5892L170.635 83.0026C164.786 77.5773 152.686 71.6118 139.304 66.787C125.893 61.952 111.04 58.2085 99.5948 57.2963L99.5312 58.0938Z" fill="black"/>
<path d="M41.8384 48.1544C42.2763 48.0958 42.5838 47.6933 42.5253 47.2554L41.5707 40.119C41.5121 39.681 41.1096 39.3735 40.6717 39.4321C40.2338 39.4907 39.9262 39.8932 39.9848 40.3311L40.8333 46.6746L34.4898 47.5231C34.0519 47.5817 33.7444 47.9842 33.8029 48.4221C33.8615 48.86 34.264 49.1675 34.7019 49.109L41.8384 48.1544ZM13.9369 26.1245L13.4512 26.7602L41.2466 47.9972L41.7323 47.3615L42.218 46.7258L14.4226 25.4888L13.9369 26.1245Z" fill="black"/>
<path d="M93.5001 97.4711C93.0603 97.5128 92.7374 97.9031 92.7791 98.3429L93.4573 105.511C93.4989 105.951 93.8892 106.274 94.3291 106.232C94.769 106.19 95.0918 105.8 95.0502 105.36L94.4473 98.9887L100.819 98.3858C101.259 98.3442 101.582 97.9538 101.54 97.514C101.498 97.0741 101.108 96.7513 100.668 96.7929L93.5001 97.4711ZM126.368 116.694L126.184 117.472L126.368 116.694ZM166.343 115.757C166.075 115.003 166.075 115.003 166.075 115.003C166.075 115.003 166.075 115.003 166.075 115.003C166.075 115.003 166.074 115.004 166.073 115.004C166.072 115.004 166.069 115.005 166.066 115.006C166.059 115.009 166.047 115.013 166.032 115.018C166.001 115.029 165.953 115.045 165.889 115.066C165.761 115.109 165.568 115.171 165.313 115.25C164.803 115.406 164.045 115.626 163.064 115.873C161.1 116.368 158.244 116.976 154.689 117.42C147.577 118.308 137.682 118.539 126.551 115.915L126.368 116.694L126.184 117.472C137.54 120.15 147.633 119.913 154.887 119.007C158.515 118.554 161.436 117.933 163.455 117.424C164.464 117.17 165.248 116.943 165.783 116.779C166.05 116.697 166.254 116.631 166.394 116.585C166.463 116.562 166.517 116.543 166.553 116.531C166.571 116.525 166.585 116.52 166.595 116.516C166.6 116.515 166.604 116.513 166.607 116.512C166.608 116.512 166.609 116.511 166.61 116.511C166.611 116.511 166.611 116.511 166.611 116.511C166.612 116.51 166.612 116.51 166.343 115.757ZM126.368 116.694L126.551 115.915C119.341 114.215 111.24 109.675 104.895 105.512C101.734 103.437 99.0284 101.47 97.1138 100.021C96.1567 99.297 95.3978 98.703 94.879 98.2908C94.6197 98.0847 94.4203 97.924 94.2863 97.8152C94.2193 97.7608 94.1686 97.7194 94.1349 97.6918C94.118 97.678 94.1054 97.6676 94.0972 97.6608C94.093 97.6574 94.09 97.6549 94.088 97.6533C94.087 97.6525 94.0863 97.6519 94.0859 97.6515C94.0856 97.6513 94.0855 97.6512 94.0854 97.6511C94.0854 97.6511 94.0854 97.6511 93.5755 98.2676C93.0656 98.884 93.0658 98.8842 93.066 98.8843C93.0662 98.8845 93.0665 98.8847 93.0668 98.885C93.0675 98.8856 93.0684 98.8863 93.0696 98.8873C93.072 98.8893 93.0756 98.8922 93.0802 98.896C93.0894 98.9036 93.1029 98.9148 93.1208 98.9294C93.1564 98.9586 93.2091 99.0016 93.2781 99.0576C93.4162 99.1697 93.6198 99.3338 93.8836 99.5434C94.4113 99.9628 95.1803 100.565 96.1485 101.297C98.0844 102.762 100.82 104.751 104.018 106.849C110.393 111.032 118.688 115.705 126.184 117.472L126.368 116.694Z" fill="black"/>
<path d="M449.736 21.9248C462.098 21.9248 473.36 28.8377 481.562 40.1562C489.763 51.4741 494.86 67.1495 494.86 84.5C494.86 101.85 489.763 117.526 481.562 128.844C473.36 140.162 462.098 147.075 449.736 147.075C437.375 147.075 426.113 140.162 417.911 128.844C409.71 117.526 404.612 101.85 404.612 84.5C404.612 67.1495 409.71 51.4741 417.911 40.1562C426.113 28.8377 437.375 21.9248 449.736 21.9248Z" fill="white" stroke="white" stroke-width="1.6"/>
<path d="M489.537 62.1504C490.05 62.1504 521.592 62.1504 537.298 62.1504" stroke="white" stroke-width="1.6"/>
<path d="M491.374 66.4365C491.835 66.5286 520.141 72.1899 534.237 75.009" stroke="white" stroke-width="1.6"/>
<path d="M491.987 69.498C492.434 69.5901 519.931 75.2514 533.624 78.0705" stroke="white" stroke-width="1.6"/>
<path d="M493.823 82.9691C494.244 82.9691 520.124 82.9691 533.012 82.9691" stroke="white" stroke-width="1.6"/>
<path d="M493.211 91.5417C493.586 91.3905 516.635 82.0898 528.113 77.4584" stroke="white" stroke-width="1.6"/>
<path d="M493.211 95.2157C493.645 95.0382 520.334 84.12 533.624 78.6831" stroke="white" stroke-width="1.6"/>
<path d="M491.987 100.114C492.434 100.022 519.931 94.3608 533.624 91.5417" stroke="white" stroke-width="1.6"/>
<path d="M492.599 102.563C493.046 102.471 520.544 96.8101 534.236 93.991" stroke="white" stroke-width="1.6"/>
<path d="M493.823 86.0308C494.244 86.0308 520.124 86.0308 533.012 86.0308" stroke="white" stroke-width="1.6"/>
<path d="M492.599 74.3967C493.039 74.5808 520.133 85.9034 533.624 91.5417" stroke="white" stroke-width="1.6"/>
<path d="M493.211 77.4584C493.652 77.6425 520.745 88.965 534.237 94.6033" stroke="white" stroke-width="1.6"/>
<path d="M577.711 21.9247C590.072 21.9247 601.334 28.8376 609.536 40.1561C617.738 51.4739 622.835 67.1494 622.835 84.4999C622.835 101.85 617.738 117.526 609.536 128.844C601.334 140.162 590.072 147.075 577.711 147.075C565.35 147.075 554.088 140.162 545.886 128.844C537.685 117.526 532.587 101.85 532.587 84.4999C532.587 67.1494 537.685 51.4739 545.886 40.1561C554.088 28.8375 565.35 21.9247 577.711 21.9247Z" fill="white" stroke="white" stroke-width="1.6"/>
<path d="M449.431 24.374C461.195 24.3742 471.921 31.0421 479.737 41.9736C487.552 52.9038 492.411 68.0448 492.411 84.8057C492.411 101.567 487.553 116.708 479.737 127.639C471.921 138.57 461.195 145.238 449.431 145.238C437.666 145.238 426.939 138.57 419.123 127.639C411.308 116.708 406.449 101.567 406.449 84.8057C406.449 68.0448 411.308 52.9038 419.123 41.9736C426.939 31.0419 437.666 24.374 449.431 24.374Z" fill="#91AA8E" stroke="black" stroke-width="1.6"/>
<path d="M577.406 24.374C589.17 24.3742 599.896 31.0421 607.712 41.9736C615.527 52.9038 620.386 68.0448 620.386 84.8057C620.386 101.567 615.527 116.708 607.712 127.639C599.896 138.57 589.17 145.238 577.406 145.238C565.641 145.238 554.914 138.57 547.098 127.639C539.283 116.708 534.424 101.567 534.424 84.8057C534.424 68.0448 539.283 52.9038 547.098 41.9736C554.914 31.0419 565.641 24.374 577.406 24.374Z" fill="#91AA8E" stroke="black" stroke-width="1.6"/>
<circle cx="449.43" cy="60.6197" r="6.24167" fill="#DBD3B9" stroke="black" stroke-width="1.6"/>
<circle cx="577.405" cy="60.6197" r="6.24167" fill="#DBD3B9" stroke="black" stroke-width="1.6"/>
<circle cx="449.43" cy="84.5" r="6.24167" fill="#DBD3B9" stroke="black" stroke-width="1.6"/>
<circle cx="577.405" cy="84.5" r="6.24167" fill="#DBD3B9" stroke="black" stroke-width="1.6"/>
<circle cx="449.43" cy="108.38" r="6.24167" fill="#DBD3B9" stroke="black" stroke-width="1.6"/>
<circle cx="577.405" cy="108.38" r="6.24167" fill="#DBD3B9" stroke="black" stroke-width="1.6"/>
<path d="M490.762 108.074H536.073" stroke="white" stroke-width="1.6"/>
<path d="M490.762 110.524H536.686" stroke="white" stroke-width="1.6"/>
<path d="M455.554 108.38L571.588 61.5381" stroke="black" stroke-width="1.6"/>
<path d="M455.554 108.993L571.588 85.1123" stroke="black" stroke-width="1.6"/>
<path d="M455.247 109.299H571.894" stroke="black" stroke-width="1.6"/>
<path d="M455.247 84.5H571.894" stroke="black" stroke-width="1.6"/>
<path d="M489.537 59.0889C490.05 59.0889 521.592 59.0889 537.298 59.0889" stroke="white" stroke-width="1.6"/>
<path d="M455.247 60.6196H571.894" stroke="black" stroke-width="1.6"/>
<path d="M455.554 60.6196L571.588 84.1939" stroke="black" stroke-width="1.6"/>
<path d="M455.247 60.6196L571.588 108.687" stroke="black" stroke-width="1.6"/>
<path d="M288.943 128.141L266.747 76.0345L258.62 80.0516L257.227 77.6997L260.401 77.1446L255.303 48.0025C253.73 39.008 322.273 27.0186 323.847 36.0132L328.627 65.2108L332.752 64.4892L332.558 67.1187L323.169 65.7946L319.724 122.757L340.786 125.376L341.108 121.612C366.367 118.306 363.126 77.3448 344.225 72.1228L344.611 68.7183L336.555 67.532L336.623 64.1829L339.479 63.6834L334.13 33.1022C329.787 8.27731 240.617 23.8745 244.96 48.6994L250.246 78.9208L253.737 78.3103L255.635 81.686L247.825 85.6477L249.344 88.7192C231.303 103.369 250.029 141.251 268.694 133.908L270.338 137.699L288.943 128.141Z" fill="white" stroke="white" stroke-width="1.6"/>
<path d="M250.692 89.3713C254.557 87.4173 259.13 87.937 263.451 90.5238C267.769 93.1088 271.762 97.7257 274.361 103.784C276.959 109.842 277.645 116.131 276.689 121.382C275.732 126.637 273.155 130.772 269.29 132.726C265.425 134.68 260.852 134.16 256.531 131.574C252.213 128.989 248.22 124.372 245.621 118.314C243.022 112.256 242.337 105.967 243.293 100.715C244.25 95.4602 246.827 91.3254 250.692 89.3713Z" fill="#4E4B4B" stroke="black" stroke-width="1.6"/>
<rect x="1.02934" y="0.374256" width="18.2047" height="54.0924" transform="matrix(0.892429 -0.451188 0.39424 0.919007 248.351 86.2301)" fill="#4E4B4B" stroke="black" stroke-width="1.6"/>
<path d="M257.728 82.4322L254.691 76.2892" stroke="black" stroke-width="1.6"/>
<path d="M342.862 73.2492C338.563 72.7232 334.437 74.7645 331.251 78.6644C328.067 82.5616 325.879 88.2597 325.491 94.8404C325.103 101.421 326.592 107.569 329.274 112.184C331.958 116.802 335.785 119.817 340.084 120.343C344.383 120.869 348.509 118.828 351.695 114.928C354.879 111.031 357.068 105.333 357.456 98.7521C357.844 92.1714 356.354 86.0231 353.672 81.4081C350.988 76.7899 347.161 73.7753 342.862 73.2492Z" fill="#4E4B4B" stroke="black" stroke-width="1.6"/>
<rect x="-0.84118" y="0.701438" width="18.2047" height="54.0924" transform="matrix(-0.992595 -0.121467 -0.0588791 0.998265 342.16 68.946)" fill="#4E4B4B" stroke="black" stroke-width="1.6"/>
<path d="M334.522 68.9997L334.659 62.3016" stroke="black" stroke-width="1.6"/>
<rect x="246.493" y="50.3556" width="7.28989" height="27.6193" transform="rotate(-9.92156 246.493 50.3556)" fill="#4E4B4B" stroke="black" stroke-width="1.6"/>
<rect x="325.456" y="36.5439" width="7.60889" height="27.6193" transform="rotate(-9.92156 325.456 36.5439)" fill="#4E4B4B" stroke="black" stroke-width="1.6"/>
<path d="M325.708 35.6872C323.608 23.6821 251.11 37.013 253.099 48.3876L246.735 49.5007C242.329 24.3097 328.095 9.81699 332.415 34.514L325.708 35.6872Z" fill="#4E4B4B" stroke="black" stroke-width="1.6"/>
<path d="M78.8126 181.836V153.562H139.75V164.765H134.618V170.1H139.75V181.836H78.8126Z" fill="white" stroke="white" stroke-width="1.6"/>
<rect x="82.1783" y="160.231" width="50.9987" height="14.9372" fill="white" stroke="black" stroke-width="1.6"/>
<rect x="80.425" y="154.363" width="13.025" height="26.025" fill="#795E37" stroke="black" stroke-width="1.6"/>
<rect x="93.425" y="163.325" width="8.9625" height="44.7125" transform="rotate(-90 93.425 163.325)" fill="#795E37" stroke="black" stroke-width="1.6"/>
<rect x="93.425" y="180.387" width="8.9625" height="44.7125" transform="rotate(-90 93.425 180.387)" fill="#795E37" stroke="black" stroke-width="1.6"/>
<path d="M144.625 181.836V153.562H205.563V164.765H200.431V170.1H205.563V181.836H144.625Z" fill="white" stroke="white" stroke-width="1.6"/>
<rect x="147.991" y="160.231" width="50.9987" height="14.9372" fill="white" stroke="black" stroke-width="1.6"/>
<rect x="146.238" y="154.363" width="13.025" height="26.025" fill="#794037" stroke="black" stroke-width="1.6"/>
<rect x="159.238" y="163.325" width="8.9625" height="44.7125" transform="rotate(-90 159.238 163.325)" fill="#794037" stroke="black" stroke-width="1.6"/>
<rect x="159.238" y="180.387" width="8.9625" height="44.7125" transform="rotate(-90 159.238 180.387)" fill="#794037" stroke="black" stroke-width="1.6"/>
<rect x="244.55" y="152.565" width="60.7573" height="29.0411" fill="white" stroke="white" stroke-width="1.6"/>
<path d="M261.758 129.987C267.98 129.987 273.054 135.148 273.054 141.552C273.054 147.955 267.98 153.115 261.758 153.115C255.537 153.115 250.463 147.955 250.463 141.552C250.463 135.149 255.536 129.988 261.758 129.987Z" fill="white" stroke="white" stroke-width="1.6"/>
<path d="M288.099 129.987C294.32 129.987 299.394 135.148 299.394 141.552C299.394 147.955 294.32 153.115 288.099 153.115C281.877 153.115 276.804 147.955 276.804 141.552C276.804 135.149 281.877 129.988 288.099 129.987Z" fill="white" stroke="white" stroke-width="1.6"/>
<path d="M320.359 179.148L305.294 174.165V159.086L320.359 155.972V179.148Z" fill="white" stroke="white" stroke-width="1.6"/>
<circle cx="262.027" cy="141.551" r="10.4888" fill="#3D3838" stroke="black" stroke-width="1.6"/>
<circle cx="287.83" cy="141.551" r="10.4888" fill="#3D3838" stroke="black" stroke-width="1.6"/>
<rect x="245.625" y="153.64" width="58.6071" height="26.8909" fill="#3D3838" stroke="black" stroke-width="1.6"/>
<path d="M319.284 177.023L304.757 172.565V160.5L319.284 157.58V177.023Z" fill="#3D3838" stroke="black" stroke-width="1.6"/>
<path d="M234.903 181.537C230.665 182.796 226.242 176.129 222.958 170.422C217.446 160.844 243.559 159.153 246.401 161.756C248.148 163.355 242.083 179.403 234.903 181.537Z" fill="white" stroke="white" stroke-width="1.6"/>
<path d="M224.74 165.434C221.205 167.771 227.803 175.847 231.359 179.51C237.248 185.253 246.56 165.386 244.997 162.908C243.433 160.431 229.158 162.512 224.74 165.434Z" fill="#EEBA67" stroke="#010101" stroke-width="1.6"/>
<path d="M232.291 163.466C233.325 162.148 242.731 161.007 244.46 163.114C245.361 167.075 242.268 172.109 240.771 174.369C239.274 176.629 230.942 165.188 232.291 163.466Z" fill="#EBD8A5" stroke="black" stroke-width="1.6"/>
<path d="M346.125 102.317V169.502C346.125 169.502 347.164 182.315 378.678 182.315C408.461 182.315 409.5 169.502 409.5 169.502V102.317C409.5 102.317 406.037 90.5426 377.986 90.1963C346.474 89.8072 346.125 102.317 346.125 102.317Z" fill="white" stroke="white" stroke-width="1.6"/>
<path d="M377.986 157.142C386.324 157.142 393.835 158.526 399.232 160.733C401.932 161.838 404.065 163.134 405.51 164.531C406.952 165.926 407.661 167.372 407.661 168.809C407.661 170.246 406.953 171.692 405.51 173.087C404.065 174.484 401.932 175.779 399.232 176.884C393.835 179.092 386.324 180.477 377.986 180.477C369.648 180.477 362.136 179.092 356.739 176.884C354.039 175.779 351.906 174.484 350.461 173.087C349.019 171.692 348.31 170.246 348.31 168.809C348.31 167.371 349.019 165.926 350.461 164.531C351.906 163.134 354.038 161.838 356.739 160.733C362.136 158.525 369.648 157.142 377.986 157.142Z" fill="#D9D9D9" stroke="black" stroke-width="1.6"/>
<path d="M377.986 136.363C386.316 136.363 393.82 137.862 399.21 140.251C401.907 141.446 404.04 142.848 405.488 144.365C406.931 145.877 407.661 147.466 407.661 149.069C407.661 150.673 406.931 152.262 405.488 153.774C404.04 155.291 401.907 156.693 399.21 157.888C393.82 160.277 386.316 161.775 377.986 161.775C369.655 161.775 362.151 160.278 356.76 157.888C354.064 156.693 351.931 155.291 350.484 153.774C349.04 152.262 348.31 150.673 348.31 149.069C348.31 147.466 349.041 145.877 350.484 144.365C351.931 142.848 354.064 141.446 356.76 140.251C362.151 137.862 369.655 136.363 377.986 136.363Z" fill="#D9D9D9" stroke="black" stroke-width="1.6"/>
<path d="M377.986 114.199C386.316 114.199 393.82 115.698 399.21 118.087C401.907 119.282 404.04 120.684 405.488 122.201C406.931 123.713 407.661 125.302 407.661 126.905C407.661 128.509 406.931 130.098 405.488 131.61C404.04 133.127 401.907 134.529 399.21 135.724C393.82 138.113 386.316 139.611 377.986 139.611C369.655 139.611 362.151 138.114 356.76 135.724C354.064 134.529 351.931 133.127 350.484 131.61C349.04 130.098 348.31 128.509 348.31 126.905C348.31 125.302 349.041 123.713 350.484 122.201C351.931 120.684 354.064 119.282 356.76 118.087C362.151 115.697 369.655 114.199 377.986 114.199Z" fill="#D9D9D9" stroke="black" stroke-width="1.6"/>
<path d="M377.639 91.3424C386.067 91.3424 393.835 92.8413 399.467 95.235C402.285 96.4325 404.53 97.8383 406.059 99.359C407.586 100.877 408.354 102.461 408.354 104.048C408.354 105.636 407.586 107.22 406.059 108.739C404.53 110.26 402.285 111.665 399.467 112.863C393.835 115.257 386.067 116.755 377.639 116.755C369.23 116.755 361.558 115.003 356.016 112.358C353.244 111.035 351.037 109.502 349.534 107.884C348.03 106.266 347.271 104.61 347.271 103.009C347.271 101.422 348.018 99.9071 349.5 98.4938C350.989 97.0733 353.185 95.7954 355.96 94.7252C361.506 92.5863 369.194 91.3424 377.639 91.3424Z" fill="#C8DCF4" stroke="black" stroke-width="1.6"/>
<path d="M347.51 149.416V169.328C347.51 169.328 349.421 181.276 377.986 181.276C406.55 181.276 408.461 169.328 408.461 169.328V149.416C396.536 164.018 359.435 164.018 347.51 149.416Z" fill="#6D92BE" stroke="black" stroke-width="1.6"/>
<path d="M347.51 128.637V150.349C347.51 150.349 354.64 161.19 377.986 161.19C401.332 161.19 408.461 150.349 408.461 150.349V127.944C396.536 142.851 360.324 140.065 347.51 128.637Z" fill="#C8DCF4" stroke="black" stroke-width="1.6"/>
<path d="M347.164 105.088L347.51 128.464C347.51 128.464 354.64 140.412 377.986 140.412C401.332 140.412 408.461 128.464 408.461 128.464V104.5C402.92 119.979 357.9 121.711 347.164 105.088Z" fill="#6D92BE" stroke="black" stroke-width="1.6"/>
<circle cx="356.514" cy="166.731" r="1.97049" fill="white" stroke="black" stroke-width="1.6"/>
<circle cx="357.207" cy="145.952" r="1.97049" fill="white" stroke="black" stroke-width="1.6"/>
<circle cx="357.207" cy="124.481" r="1.97049" fill="white" stroke="black" stroke-width="1.6"/>
</svg>
