<svg width="784" height="240" viewBox="0 0 784 240" fill="none" xmlns="http://www.w3.org/2000/svg">
<rect width="784" height="240" rx="8" fill="white"/>
<path d="M0 112H784" stroke="#657396"/>
<path d="M0 208H784" stroke="#657396"/>
<path d="M0 64H784" stroke="#657396"/>
<path d="M0 160H784" stroke="#657396"/>
<path d="M0 32H784" stroke="#657396"/>
<path d="M0 128H784" stroke="#657396"/>
<path d="M0 224H784" stroke="#657396"/>
<path d="M0 80H784" stroke="#657396"/>
<path d="M0 176H784" stroke="#657396"/>
<path d="M0 48H784" stroke="#657396"/>
<path d="M0 96H784" stroke="#657396"/>
<path d="M0 192H784" stroke="#657396"/>
<path d="M16 240L16 -2.38419e-06" stroke="#657396"/>
<path d="M528 240V-2.38419e-06" stroke="#657396"/>
<path d="M272 240V-2.38419e-06" stroke="#657396"/>
<path d="M144 240L144 -2.38419e-06" stroke="#657396"/>
<path d="M656 240V-2.38419e-06" stroke="#657396"/>
<path d="M400 240V-2.38419e-06" stroke="#657396"/>
<path d="M80 240L80 -2.38419e-06" stroke="#657396"/>
<path d="M592 240V-2.38419e-06" stroke="#657396"/>
<path d="M336 240V-2.38419e-06" stroke="#657396"/>
<path d="M208 240L208 -2.38419e-06" stroke="#657396"/>
<path d="M720 240V-2.38419e-06" stroke="#657396"/>
<path d="M464 240V-2.38419e-06" stroke="#657396"/>
<path d="M48 240L48 -2.38419e-06" stroke="#657396"/>
<path d="M560 240V-2.38419e-06" stroke="#657396"/>
<path d="M304 240V-2.38419e-06" stroke="#657396"/>
<path d="M176 240L176 -2.38419e-06" stroke="#657396"/>
<path d="M688 240V-2.38419e-06" stroke="#657396"/>
<path d="M432 240V-2.38419e-06" stroke="#657396"/>
<path d="M112 240L112 1.90735e-06" stroke="#657396"/>
<path d="M624 240V-2.38419e-06" stroke="#657396"/>
<path d="M368 240V-2.38419e-06" stroke="#657396"/>
<path d="M240 240L240 -2.38419e-06" stroke="#657396"/>
<path d="M496 240V-2.38419e-06" stroke="#657396"/>
<path d="M32 240L32 -2.38419e-06" stroke="#657396"/>
<path d="M544 240V-2.38419e-06" stroke="#657396"/>
<path d="M288 240V-2.38419e-06" stroke="#657396"/>
<path d="M160 240L160 -2.38419e-06" stroke="#657396"/>
<path d="M672 240V-2.38419e-06" stroke="#657396"/>
<path d="M416 240V-2.38419e-06" stroke="#657396"/>
<path d="M96 240L96 -2.38419e-06" stroke="#657396"/>
<path d="M608 240V-2.38419e-06" stroke="#657396"/>
<path d="M352 240V-2.38419e-06" stroke="#657396"/>
<path d="M224 240L224 -2.38419e-06" stroke="#657396"/>
<path d="M736 240V-2.38419e-06" stroke="#657396"/>
<path d="M752 240V-2.38419e-06" stroke="#657396"/>
<path d="M768 240V-2.38419e-06" stroke="#657396"/>
<path d="M480 240V-2.38419e-06" stroke="#657396"/>
<path d="M64 240L64 -2.38419e-06" stroke="#657396"/>
<path d="M576 240V-2.38419e-06" stroke="#657396"/>
<path d="M320 240V-2.38419e-06" stroke="#657396"/>
<path d="M192 240L192 -2.38419e-06" stroke="#657396"/>
<path d="M704 240V-2.38419e-06" stroke="#657396"/>
<path d="M448 240V-2.38419e-06" stroke="#657396"/>
<path d="M128 240L128 -2.38419e-06" stroke="#657396"/>
<path d="M640 240V-2.38419e-06" stroke="#657396"/>
<path d="M384 240V-2.38419e-06" stroke="#657396"/>
<path d="M256 240V-2.38419e-06" stroke="#657396"/>
<path d="M512 240V-2.38419e-06" stroke="#657396"/>
<path d="M0 112H784" stroke="#657396"/>
<path d="M0 208H784" stroke="#657396"/>
<path d="M0 32H784" stroke="#657396"/>
<path d="M0 16H784" stroke="#657396"/>
<path d="M0 128H784" stroke="#657396"/>
<path d="M0 224H784" stroke="#657396"/>
<path d="M0 144H784" stroke="#657396"/>
<path d="M17.5375 31L16 32.9219L47.5191 57.1378L39.7334 58.1988L40.1178 61.2738L52.1316 59.4441C35.9877 77.1255 39.4373 102.291 51.3629 115.563C75.1944 142.086 108.619 128.609 114 119L114.581 132.5L117.983 132.116L117.092 124.404C147.073 150.542 176.978 151.034 203.5 144.5C209.266 169.1 247.012 187.058 274.303 161.689C296.01 141.511 287.372 113.642 276.993 102.11C249.318 74.8192 220.311 91 210.311 103V91.2828H207.62L207.805 99.4195C173.98 78.2786 145.92 73.2817 124.011 69.4379C121.32 62.9035 112.864 49.4502 94.029 45.6064C70.1975 40.7428 60.0755 51.6283 53.2848 57.9065L51.342 46.6631L48.267 47.0475L49.441 54.8315L17.5375 31Z" stroke="white" stroke-width="2.3"/>
<path d="M126.703 118.044C121.322 118.428 115.708 118.638 114.785 118.638C130.161 103.263 128.959 82.5068 125.5 73.2817C150.1 74.8193 189.691 90.1944 205.451 101.341L197.743 101.482V104.941L209.727 104.416C201.655 113.642 198.965 130.554 202.424 141.317C164.601 152.079 131.314 132.989 119.782 122.098L126.703 121.503V118.044Z" stroke="white" stroke-width="2.3"/>
<circle cx="84.4195" cy="87.5038" r="41.9005" fill="#FFF6C5" stroke="black" stroke-width="2.3"/>
<circle cx="244.321" cy="130.554" r="41.9005" fill="#FFF6C5" stroke="black" stroke-width="2.3"/>
<path d="M209.386 104.028C210.021 104.004 210.516 103.47 210.492 102.836L210.103 92.4931C210.079 91.8584 209.546 91.3632 208.911 91.3871C208.276 91.4109 207.781 91.9448 207.805 92.5795L208.15 101.773L198.957 102.118C198.322 102.142 197.827 102.676 197.851 103.311C197.875 103.946 198.409 104.441 199.043 104.417L209.386 104.028ZM122.5 71.5L122.409 72.6464C136.241 73.7488 154.325 78.2943 170.727 84.2075C187.169 90.1355 201.702 97.3603 208.561 103.722L209.343 102.879L210.125 102.036C202.9 95.334 187.98 87.9828 171.507 82.0438C154.993 76.0901 136.698 71.4779 122.591 70.3536L122.5 71.5Z" fill="black"/>
<path d="M51.5153 59.4307C52.1449 59.3465 52.5869 58.7679 52.5027 58.1384L51.1306 47.8798C51.0464 47.2502 50.4678 46.8082 49.8382 46.8924C49.2087 46.9766 48.7667 47.5552 48.8509 48.1847L50.0706 57.3035L40.9518 58.5232C40.3223 58.6074 39.8802 59.186 39.9644 59.8155C40.0486 60.445 40.6272 60.8871 41.2567 60.8029L51.5153 59.4307ZM17.1531 32.1531L16.455 33.0669L50.6647 59.2047L51.3629 58.2909L52.0611 57.3771L17.8513 31.2393L17.1531 32.1531Z" fill="black"/>
<path d="M115.061 119.8C114.429 119.86 113.965 120.421 114.025 121.053L115 131.357C115.06 131.989 115.621 132.454 116.253 132.394C116.885 132.334 117.349 131.773 117.29 131.14L116.423 121.981L125.582 121.115C126.214 121.055 126.678 120.494 126.619 119.862C126.559 119.229 125.998 118.765 125.365 118.825L115.061 119.8ZM155.53 143.623L155.266 144.743L155.266 144.743L155.53 143.623ZM204.73 142.47C204.344 141.387 204.344 141.387 204.344 141.387C204.344 141.387 204.344 141.387 204.344 141.387C204.344 141.387 204.344 141.387 204.343 141.387C204.341 141.388 204.338 141.389 204.334 141.39C204.325 141.393 204.312 141.398 204.293 141.405C204.255 141.418 204.197 141.437 204.119 141.463C203.963 141.515 203.726 141.592 203.414 141.688C202.789 141.88 201.858 142.149 200.653 142.453C198.243 143.061 194.734 143.807 190.366 144.352C181.628 145.443 169.469 145.728 155.794 142.504L155.53 143.623L155.266 144.743C169.265 148.043 181.707 147.751 190.651 146.635C195.123 146.076 198.725 145.311 201.216 144.683C202.461 144.369 203.429 144.089 204.089 143.887C204.419 143.785 204.672 143.703 204.844 143.646C204.931 143.617 204.997 143.595 205.042 143.579C205.065 143.571 205.083 143.565 205.095 143.561C205.101 143.559 205.106 143.557 205.11 143.556C205.112 143.555 205.113 143.554 205.114 143.554C205.115 143.554 205.115 143.554 205.116 143.554C205.116 143.553 205.117 143.553 204.73 142.47ZM155.53 143.623L155.794 142.504C146.948 140.418 136.998 134.844 129.193 129.722C125.305 127.171 121.979 124.752 119.624 122.971C118.448 122.081 117.515 121.351 116.877 120.844C116.558 120.591 116.313 120.393 116.149 120.26C116.067 120.193 116.004 120.142 115.963 120.108C115.942 120.091 115.927 120.079 115.917 120.07C115.912 120.066 115.908 120.063 115.906 120.061C115.905 120.06 115.904 120.06 115.903 120.059C115.903 120.059 115.903 120.059 115.903 120.059C115.903 120.059 115.903 120.059 115.17 120.945C114.437 121.831 114.437 121.831 114.437 121.831C114.438 121.832 114.438 121.832 114.438 121.832C114.439 121.833 114.44 121.834 114.442 121.835C114.445 121.838 114.449 121.841 114.455 121.846C114.466 121.855 114.483 121.869 114.505 121.887C114.549 121.923 114.614 121.976 114.7 122.046C114.87 122.184 115.121 122.386 115.446 122.645C116.097 123.161 117.044 123.903 118.237 124.805C120.622 126.61 123.991 129.06 127.931 131.645C135.78 136.796 146.01 142.56 155.266 144.743L155.53 143.623Z" fill="black"/>
<path d="M553.521 27.1504C568.669 27.1504 582.485 35.6207 592.558 49.5205C602.629 63.4189 608.894 82.6767 608.894 104C608.894 125.323 602.629 144.581 592.558 158.479C582.485 172.379 568.669 180.85 553.521 180.85C538.374 180.85 524.559 172.379 514.486 158.479C504.415 144.581 498.15 125.323 498.15 104C498.15 82.6766 504.415 63.4189 514.486 49.5205C524.559 35.6209 538.374 27.1505 553.521 27.1504Z" fill="white" stroke="white" stroke-width="2.3"/>
<path d="M602.507 76.4927C603.138 76.4927 641.959 76.4927 661.29 76.4927" stroke="white" stroke-width="2.3"/>
<path d="M604.768 81.7681C605.335 81.8814 640.173 88.8491 657.522 92.3188" stroke="white" stroke-width="2.3"/>
<path d="M605.522 85.5361C606.072 85.6494 639.915 92.6172 656.768 96.0869" stroke="white" stroke-width="2.3"/>
<path d="M607.783 102.116C608.3 102.116 640.153 102.116 656.014 102.116" stroke="white" stroke-width="2.3"/>
<path d="M607.029 112.667C607.49 112.48 635.859 101.033 649.985 95.3332" stroke="white" stroke-width="2.3"/>
<path d="M607.029 117.188C607.563 116.97 640.411 103.532 656.768 96.8407" stroke="white" stroke-width="2.3"/>
<path d="M605.522 123.218C606.072 123.104 639.915 116.137 656.768 112.667" stroke="white" stroke-width="2.3"/>
<path d="M606.275 126.232C606.826 126.119 640.669 119.151 657.522 115.681" stroke="white" stroke-width="2.3"/>
<path d="M607.783 105.884C608.3 105.884 640.153 105.884 656.014 105.884" stroke="white" stroke-width="2.3"/>
<path d="M606.275 91.5654C606.818 91.792 640.163 105.727 656.768 112.667" stroke="white" stroke-width="2.3"/>
<path d="M607.029 95.3335C607.571 95.5601 640.917 109.496 657.522 116.435" stroke="white" stroke-width="2.3"/>
<path d="M711.029 27.1504C726.176 27.1504 739.993 35.6207 750.065 49.5205C760.136 63.4189 766.401 82.6767 766.401 104C766.401 125.323 760.136 144.581 750.065 158.479C739.993 172.379 726.176 180.85 711.029 180.85C695.881 180.85 682.066 172.379 671.994 158.479C661.922 144.581 655.658 125.323 655.658 104C655.658 82.6766 661.922 63.4189 671.994 49.5205C682.066 35.6209 695.881 27.1505 711.029 27.1504Z" fill="white" stroke="white" stroke-width="2.3"/>
<path d="M553.145 30.1648C567.557 30.1648 580.714 38.333 590.312 51.7566C599.908 65.178 605.879 83.7785 605.879 104.377C605.879 124.975 599.908 143.575 590.312 156.997C580.714 170.42 567.557 178.589 553.145 178.589C538.732 178.589 525.576 170.42 515.979 156.997C506.382 143.575 500.411 124.975 500.411 104.377C500.411 83.7784 506.382 65.1781 515.979 51.7566C525.576 38.333 538.732 30.1649 553.145 30.1648Z" fill="#91AA8E" stroke="black" stroke-width="2.3"/>
<path d="M710.652 30.1648C725.064 30.1648 738.221 38.333 747.819 51.7566C757.415 65.178 763.386 83.7785 763.386 104.377C763.386 124.975 757.415 143.575 747.819 156.997C738.221 170.42 725.064 178.589 710.652 178.589C696.24 178.589 683.084 170.42 673.486 156.997C663.89 143.575 657.918 124.975 657.918 104.377C657.918 83.7784 663.89 65.1781 673.486 51.7566C683.084 38.333 696.24 30.1649 710.652 30.1648Z" fill="#91AA8E" stroke="black" stroke-width="2.3"/>
<circle cx="553.145" cy="74.6088" r="7.51667" fill="#DBD3B9" stroke="black" stroke-width="2.3"/>
<circle cx="710.652" cy="74.6088" r="7.51667" fill="#DBD3B9" stroke="black" stroke-width="2.3"/>
<circle cx="553.145" cy="104" r="7.51667" fill="#DBD3B9" stroke="black" stroke-width="2.3"/>
<circle cx="710.652" cy="104" r="7.51667" fill="#DBD3B9" stroke="black" stroke-width="2.3"/>
<circle cx="553.145" cy="133.391" r="7.51667" fill="#DBD3B9" stroke="black" stroke-width="2.3"/>
<circle cx="710.652" cy="133.391" r="7.51667" fill="#DBD3B9" stroke="black" stroke-width="2.3"/>
<path d="M604.014 133.014H659.783" stroke="white" stroke-width="2.3"/>
<path d="M604.014 136.029H660.536" stroke="white" stroke-width="2.3"/>
<path d="M560.681 133.391L703.493 75.7393" stroke="black" stroke-width="2.3"/>
<path d="M560.681 134.145L703.493 104.754" stroke="black" stroke-width="2.3"/>
<path d="M560.304 134.522H703.87" stroke="black" stroke-width="2.3"/>
<path d="M560.304 104H703.87" stroke="black" stroke-width="2.3"/>
<path d="M602.507 72.7246C603.138 72.7246 641.959 72.7246 661.29 72.7246" stroke="white" stroke-width="2.3"/>
<path d="M560.304 74.6086H703.87" stroke="black" stroke-width="2.3"/>
<path d="M560.681 74.6086L703.493 103.623" stroke="black" stroke-width="2.3"/>
<path d="M560.304 74.6086L703.493 133.768" stroke="black" stroke-width="2.3"/>
<path d="M355.622 157.712L328.304 93.5811L318.301 98.5253L316.587 95.6306L320.493 94.9474L314.219 59.0802C312.283 48.01 396.644 33.2539 398.58 44.3241L404.464 80.2596L409.541 79.3715L409.302 82.6078L397.747 80.9782L393.506 151.086L419.429 154.309L419.826 149.676C450.913 145.608 446.925 95.1938 423.662 88.7667L424.137 84.5765L414.221 83.1164L414.305 78.9945L417.82 78.3797L411.237 40.7413C405.892 10.1876 296.145 29.3842 301.489 59.9379L307.995 97.1335L312.291 96.382L314.628 100.537L305.015 105.413L306.884 109.193C284.68 127.224 307.728 173.847 330.7 164.809L332.724 169.475L355.622 157.712Z" fill="white" stroke="white" stroke-width="2.3"/>
<path d="M308.609 110.148C313.304 107.774 318.876 108.396 324.164 111.562C329.446 114.724 334.34 120.379 337.527 127.809C340.714 135.238 341.552 142.943 340.382 149.368C339.211 155.799 336.064 160.829 331.369 163.203C326.674 165.576 321.101 164.955 315.814 161.789C310.531 158.627 305.638 152.972 302.451 145.542C299.263 138.113 298.426 130.408 299.596 123.983C300.766 117.552 303.914 112.522 308.609 110.148Z" fill="#4E4B4B" stroke="black" stroke-width="2.3"/>
<rect x="1.47967" y="0.537992" width="22.0751" height="66.2445" transform="matrix(0.892429 -0.451188 0.39424 0.919007 305.655 106.231)" fill="#4E4B4B" stroke="black" stroke-width="2.3"/>
<path d="M317.204 101.455L313.466 93.8943" stroke="black" stroke-width="2.3"/>
<path d="M421.974 90.3188C416.752 89.6798 411.722 92.1562 407.823 96.9284C403.927 101.697 401.244 108.677 400.768 116.747C400.292 124.817 402.119 132.349 405.401 137.996C408.685 143.647 413.353 147.31 418.575 147.949C423.797 148.588 428.827 146.112 432.726 141.34C436.622 136.571 439.305 129.591 439.781 121.521C440.257 113.451 438.43 105.919 435.148 100.272C431.864 94.621 427.196 90.9578 421.974 90.3188Z" fill="#4E4B4B" stroke="black" stroke-width="2.3"/>
<rect x="-1.2092" y="1.00832" width="22.0751" height="66.2445" transform="matrix(-0.992595 -0.121467 -0.0588791 0.998265 420.781 84.8358)" fill="#4E4B4B" stroke="black" stroke-width="2.3"/>
<path d="M411.72 84.9227L411.888 76.679" stroke="black" stroke-width="2.3"/>
<rect x="303.567" y="62.1107" width="8.6414" height="33.6622" transform="rotate(-9.92156 303.567 62.1107)" fill="#4E4B4B" stroke="black" stroke-width="2.3"/>
<rect x="400.753" y="45.1114" width="9.03401" height="33.6622" transform="rotate(-9.92156 400.753 45.1114)" fill="#4E4B4B" stroke="black" stroke-width="2.3"/>
<path d="M400.871 43.923C398.287 29.1475 309.058 45.5548 311.507 59.5543L303.674 60.9243C298.251 29.9199 403.809 12.0828 409.126 42.4791L400.871 43.923Z" fill="#4E4B4B" stroke="black" stroke-width="2.3"/>
<path d="M97.0001 223.798V189H172V202.788H165.684V209.354H172V223.798H97.0001Z" fill="white" stroke="white" stroke-width="2.3"/>
<rect x="101.308" y="197.372" width="62.4368" height="18.0535" fill="white" stroke="black" stroke-width="2.3"/>
<rect x="99.15" y="190.15" width="15.7" height="31.7" fill="#795E37" stroke="black" stroke-width="2.3"/>
<rect x="115.15" y="200.85" width="10.7" height="54.7" transform="rotate(-90 115.15 200.85)" fill="#795E37" stroke="black" stroke-width="2.3"/>
<rect x="115.15" y="221.85" width="10.7" height="54.7" transform="rotate(-90 115.15 221.85)" fill="#795E37" stroke="black" stroke-width="2.3"/>
<path d="M178 223.798V189H253V202.788H246.684V209.354H253V223.798H178Z" fill="white" stroke="white" stroke-width="2.3"/>
<rect x="182.308" y="197.372" width="62.4368" height="18.0535" fill="white" stroke="black" stroke-width="2.3"/>
<rect x="180.15" y="190.15" width="15.7" height="31.7" fill="#794037" stroke="black" stroke-width="2.3"/>
<rect x="196.15" y="200.85" width="10.7" height="54.7" transform="rotate(-90 196.15 200.85)" fill="#794037" stroke="black" stroke-width="2.3"/>
<rect x="196.15" y="221.85" width="10.7" height="54.7" transform="rotate(-90 196.15 221.85)" fill="#794037" stroke="black" stroke-width="2.3"/>
<rect x="301.15" y="187.938" width="74.4475" height="35.4121" fill="white" stroke="white" stroke-width="2.3"/>
<path d="M322.164 160.15C329.727 160.151 335.901 166.424 335.901 174.217C335.901 182.01 329.727 188.284 322.164 188.284C314.602 188.284 308.428 182.01 308.428 174.217C308.428 166.424 314.602 160.15 322.164 160.15Z" fill="white" stroke="white" stroke-width="2.3"/>
<path d="M354.584 160.15C362.146 160.151 368.32 166.424 368.32 174.217C368.32 182.01 362.146 188.284 354.584 188.284C347.021 188.284 340.847 182.01 340.847 174.217C340.848 166.424 347.021 160.15 354.584 160.15Z" fill="white" stroke="white" stroke-width="2.3"/>
<path d="M394.123 220.261L375.913 214.238V195.933L394.123 192.169V220.261Z" fill="white" stroke="white" stroke-width="2.3"/>
<circle cx="322.495" cy="174.217" r="12.7439" fill="#3D3838" stroke="black" stroke-width="2.3"/>
<circle cx="354.253" cy="174.217" r="12.7439" fill="#3D3838" stroke="black" stroke-width="2.3"/>
<rect x="302.473" y="189.261" width="71.801" height="32.7657" fill="#3D3838" stroke="black" stroke-width="2.3"/>
<path d="M392.799 217.651L375.251 212.266V197.674L392.799 194.146V217.651Z" fill="#3D3838" stroke="black" stroke-width="2.3"/>
<path d="M480 188.429C505.213 171.803 472.54 115.882 453.052 90C447.571 101.647 441.177 115.806 435.924 132.934C430.631 150.195 429.073 168.104 431.813 175.183L429.986 187.744L431.813 188.429L433.183 178.837C436.837 189.343 443.004 191.626 449.17 193.225V222H451.959V193.225C461.094 194.504 466.222 193.453 467.896 192.54V222H471.093V192.083C472.738 191.718 476.194 189.647 477.716 188.657L478.63 193.91L481.142 193.225L480 188.429Z" fill="white" stroke="white" stroke-width="2.3"/>
<path d="M453.168 92.8842C476.781 123.857 511.929 187.205 463.618 192.82C403.228 199.837 444.966 108.509 453.168 92.8842Z" fill="#C8DCF4" stroke="black" stroke-width="2.3"/>
<path d="M469.495 191.855V221.315" stroke="black" stroke-width="2.3"/>
<path d="M450.54 191.855V221.315" stroke="black" stroke-width="2.3"/>
<path d="M473.377 154.401L479.543 192.997" stroke="black" stroke-width="2.3"/>
<path d="M432.955 177.01L431.128 187.516" stroke="black" stroke-width="2.3"/>
<circle cx="2.05536" cy="2.05536" r="2.05536" transform="matrix(-1 0 0 1 450.54 138.872)" fill="black"/>
<circle cx="2.05536" cy="2.05536" r="2.05536" transform="matrix(-1 0 0 1 442.775 138.872)" fill="black"/>
<path d="M289.111 223.43C283.896 224.98 278.452 216.774 274.41 209.75C267.626 197.961 299.765 195.88 303.263 199.084C305.413 201.053 297.949 220.804 289.111 223.43Z" fill="white" stroke="white" stroke-width="1.5"/>
<path d="M276.603 203.611C272.252 206.488 280.373 216.427 284.749 220.936C291.997 228.004 303.459 203.552 301.534 200.503C299.61 197.454 282.04 200.015 276.603 203.611Z" fill="#EEBA67" stroke="#010101" stroke-width="1.5"/>
<path d="M285.897 201.189C287.169 199.566 298.746 198.163 300.874 200.756C301.983 205.631 298.176 211.826 296.334 214.608C294.492 217.39 284.236 203.308 285.897 201.189Z" fill="#EBD8A5" stroke="black" stroke-width="1.5"/>
</svg>
