<svg width="768" height="224" viewBox="0 0 768 224" fill="none" xmlns="http://www.w3.org/2000/svg">
<rect width="768" height="224" rx="4" fill="white"/>
<path d="M0 112H768" stroke="#657396"/>
<path d="M0 208H768" stroke="#657396"/>
<path d="M0 64H768" stroke="#657396"/>
<path d="M0 160H768" stroke="#657396"/>
<path d="M0 32H768" stroke="#657396"/>
<path d="M0 128H768" stroke="#657396"/>
<path d="M0 80H768" stroke="#657396"/>
<path d="M0 176H768" stroke="#657396"/>
<path d="M0 48H768" stroke="#657396"/>
<path d="M0 96H768" stroke="#657396"/>
<path d="M0 192H768" stroke="#657396"/>
<path d="M16 224L16 -1.00136e-05" stroke="#657396"/>
<path d="M528 224V-1.00136e-05" stroke="#657396"/>
<path d="M272 224V-1.00136e-05" stroke="#657396"/>
<path d="M144 224L144 -1.00136e-05" stroke="#657396"/>
<path d="M656 224V-1.00136e-05" stroke="#657396"/>
<path d="M400 224V-1.00136e-05" stroke="#657396"/>
<path d="M80 224L80 -1.00136e-05" stroke="#657396"/>
<path d="M592 224V-1.00136e-05" stroke="#657396"/>
<path d="M336 224V-1.00136e-05" stroke="#657396"/>
<path d="M208 224L208 -1.00136e-05" stroke="#657396"/>
<path d="M720 224V-1.00136e-05" stroke="#657396"/>
<path d="M464 224V-1.00136e-05" stroke="#657396"/>
<path d="M48 224L48 -1.00136e-05" stroke="#657396"/>
<path d="M560 224V-1.00136e-05" stroke="#657396"/>
<path d="M304 224V-1.00136e-05" stroke="#657396"/>
<path d="M176 224L176 -1.00136e-05" stroke="#657396"/>
<path d="M688 224V-1.00136e-05" stroke="#657396"/>
<path d="M432 224V-1.00136e-05" stroke="#657396"/>
<path d="M112 224L112 -1.14441e-05" stroke="#657396"/>
<path d="M624 224V-1.00136e-05" stroke="#657396"/>
<path d="M368 224V-1.00136e-05" stroke="#657396"/>
<path d="M240 224L240 -1.00136e-05" stroke="#657396"/>
<path d="M496 224V-1.00136e-05" stroke="#657396"/>
<path d="M32 224L32 -1.00136e-05" stroke="#657396"/>
<path d="M544 224V-1.00136e-05" stroke="#657396"/>
<path d="M288 224V-1.00136e-05" stroke="#657396"/>
<path d="M160 224L160 -1.00136e-05" stroke="#657396"/>
<path d="M672 224V-1.00136e-05" stroke="#657396"/>
<path d="M416 224V-1.00136e-05" stroke="#657396"/>
<path d="M96 224L96 -1.00136e-05" stroke="#657396"/>
<path d="M608 224V-1.00136e-05" stroke="#657396"/>
<path d="M352 224V-1.00136e-05" stroke="#657396"/>
<path d="M224 224L224 -1.00136e-05" stroke="#657396"/>
<path d="M736 224V-1.00136e-05" stroke="#657396"/>
<path d="M752 224V-1.90735e-06" stroke="#657396"/>
<path d="M480 224V-1.00136e-05" stroke="#657396"/>
<path d="M64 224L64 -1.00136e-05" stroke="#657396"/>
<path d="M576 224V-1.00136e-05" stroke="#657396"/>
<path d="M320 224V-1.00136e-05" stroke="#657396"/>
<path d="M192 224L192 -1.00136e-05" stroke="#657396"/>
<path d="M704 224V-1.00136e-05" stroke="#657396"/>
<path d="M448 224V-1.00136e-05" stroke="#657396"/>
<path d="M128 224L128 -1.00136e-05" stroke="#657396"/>
<path d="M640 224V-1.00136e-05" stroke="#657396"/>
<path d="M384 224V-1.00136e-05" stroke="#657396"/>
<path d="M256 224V-1.00136e-05" stroke="#657396"/>
<path d="M512 224V-1.00136e-05" stroke="#657396"/>
<path d="M0 112H768" stroke="#657396"/>
<path d="M0 208H768" stroke="#657396"/>
<path d="M0 32H768" stroke="#657396"/>
<path d="M0 16H768" stroke="#657396"/>
<path d="M0 128H768" stroke="#657396"/>
<path d="M0 144H768" stroke="#657396"/>
<path d="M17.5375 29.9999L16 31.9218L47.5191 56.1377L42.1156 56.8217L42.5 59.8967L52.1316 58.444C35.9877 76.1254 39.4373 101.291 51.3629 114.563C75.1944 141.086 107.867 127.248 113.248 117.638L114.193 129.171L117.596 128.787L117.092 123.404C147.073 149.542 177.055 149.926 203.577 143.392C209.343 167.992 247.012 186.058 274.303 160.689C296.01 140.511 287.372 112.641 276.993 101.11C249.318 73.8192 220.746 90.3475 210.88 103.032L210.404 92.9999H207.713L207.805 98.4194C173.98 77.2786 145.92 72.2817 124.011 68.4379C121.32 61.9034 112.864 48.4501 94.029 44.6063C70.1975 39.7428 60.0755 50.6283 53.2848 56.9065L51.6684 47.6156L48.5933 47.9999L49.441 53.8314L17.5375 29.9999Z" stroke="white" stroke-width="1.8"/>
<path d="M124.259 117.558C118.878 117.942 115.708 118 114.785 118C130.161 102.625 128.623 81.5068 125.164 72.2817C149.764 73.8193 189.355 89.1944 205.115 100.341L200.293 100.381V103.84L209.727 103.416C201.655 112.642 198.964 129.554 202.424 140.317C164.601 151.079 131 131.5 119 121L124.259 120.656V117.558Z" stroke="white" stroke-width="1.8"/>
<circle cx="84.4195" cy="86.5037" r="42.1505" fill="#FFF6C5" stroke="black" stroke-width="1.8"/>
<circle cx="244.321" cy="129.554" r="42.1505" fill="#FFF6C5" stroke="black" stroke-width="1.8"/>
<path d="M209.377 102.778C209.873 102.76 210.261 102.342 210.242 101.845L209.938 93.7508C209.919 93.2541 209.501 92.8666 209.005 92.8852C208.508 92.9039 208.12 93.3217 208.139 93.8184L208.41 101.013L201.215 101.284C200.718 101.302 200.33 101.72 200.349 102.217C200.368 102.714 200.786 103.101 201.282 103.082L209.377 102.778ZM123 70.4999L122.928 71.3971C136.789 72.5018 154.771 77.0542 171.059 82.9715C187.379 88.9 201.831 96.1385 208.731 102.539L209.343 101.879L209.955 101.219C202.771 94.5557 188.021 87.2181 171.674 81.2797C155.297 75.3301 137.149 70.7248 123.072 69.6028L123 70.4999Z" fill="black"/>
<path d="M51.4823 58.183C51.9749 58.1171 52.3209 57.6643 52.255 57.1716L51.1811 49.1431C51.1152 48.6504 50.6624 48.3045 50.1698 48.3704C49.6771 48.4363 49.3311 48.8891 49.397 49.3817L50.3516 56.5182L43.2151 57.4727C42.7225 57.5386 42.3765 57.9914 42.4424 58.4841C42.5083 58.9768 42.9611 59.3228 43.4538 59.2569L51.4823 58.183ZM17.1532 31.1531L16.6068 31.8683L50.8165 58.0061L51.3629 57.2909L51.9094 56.5758L17.6996 30.438L17.1532 31.1531Z" fill="black"/>
<path d="M115.085 119.049C114.59 119.096 114.227 119.535 114.274 120.029L115.037 128.093C115.084 128.588 115.523 128.952 116.018 128.905C116.512 128.858 116.876 128.419 116.829 127.924L116.151 120.756L123.319 120.078C123.813 120.031 124.177 119.592 124.13 119.097C124.083 118.602 123.644 118.239 123.149 118.286L115.085 119.049ZM155.53 142.623L155.323 143.499V143.499L155.53 142.623ZM204.73 141.47C204.428 140.622 204.428 140.622 204.428 140.622C204.428 140.622 204.428 140.622 204.428 140.622C204.428 140.622 204.427 140.623 204.426 140.623C204.424 140.624 204.421 140.625 204.417 140.626C204.408 140.629 204.394 140.634 204.374 140.641C204.336 140.654 204.277 140.674 204.198 140.701C204.04 140.753 203.802 140.83 203.487 140.927C202.858 141.12 201.924 141.39 200.714 141.695C198.295 142.305 194.776 143.053 190.397 143.6C181.636 144.694 169.447 144.98 155.736 141.747L155.53 142.623L155.323 143.499C169.288 146.791 181.699 146.5 190.62 145.386C195.081 144.829 198.673 144.066 201.154 143.44C202.395 143.127 203.359 142.849 204.015 142.648C204.343 142.547 204.595 142.465 204.766 142.409C204.851 142.38 204.916 142.358 204.961 142.343C204.983 142.335 205 142.329 205.012 142.325C205.018 142.323 205.023 142.321 205.026 142.32C205.028 142.319 205.029 142.319 205.03 142.318C205.031 142.318 205.031 142.318 205.032 142.318C205.032 142.318 205.033 142.318 204.73 141.47ZM155.53 142.623L155.736 141.747C146.846 139.651 136.866 134.056 129.056 128.931C125.162 126.376 121.831 123.954 119.474 122.17C118.295 121.279 117.361 120.547 116.722 120.04C116.402 119.786 116.156 119.588 115.991 119.454C115.909 119.387 115.846 119.336 115.805 119.302C115.784 119.284 115.768 119.272 115.758 119.263C115.753 119.259 115.749 119.256 115.747 119.254C115.745 119.253 115.745 119.252 115.744 119.252C115.744 119.251 115.744 119.251 115.743 119.251C115.743 119.251 115.743 119.251 115.17 119.945C114.596 120.638 114.596 120.638 114.597 120.639C114.597 120.639 114.597 120.639 114.598 120.639C114.598 120.64 114.6 120.641 114.601 120.642C114.604 120.645 114.608 120.648 114.614 120.653C114.625 120.662 114.642 120.676 114.664 120.694C114.708 120.73 114.772 120.782 114.857 120.851C115.027 120.989 115.277 121.191 115.602 121.449C116.251 121.964 117.197 122.705 118.388 123.606C120.769 125.408 124.134 127.854 128.068 130.436C135.913 135.584 146.112 141.327 155.323 143.499L155.53 142.623Z" fill="black"/>
<path d="M537.521 30.9004C552.769 30.9004 566.654 39.4274 576.76 53.374C586.865 67.3196 593.144 86.6298 593.144 108C593.144 129.37 586.865 148.68 576.76 162.626C566.654 176.573 552.769 185.1 537.521 185.1C522.274 185.1 508.389 176.573 498.283 162.626C488.178 148.68 481.9 129.37 481.9 108C481.9 86.6299 488.178 67.3196 498.283 53.374C508.389 39.4275 522.274 30.9005 537.521 30.9004Z" fill="white" stroke="white" stroke-width="1.8"/>
<path d="M586.507 80.4928C587.139 80.4928 625.959 80.4928 645.29 80.4928" stroke="white" stroke-width="1.8"/>
<path d="M588.768 85.7681C589.335 85.8814 624.173 92.8491 641.522 96.3188" stroke="white" stroke-width="1.8"/>
<path d="M589.522 89.5361C590.072 89.6494 623.915 96.6172 640.768 100.087" stroke="white" stroke-width="1.8"/>
<path d="M591.782 106.116C592.3 106.116 624.153 106.116 640.014 106.116" stroke="white" stroke-width="1.8"/>
<path d="M591.029 116.667C591.49 116.48 619.859 105.034 633.985 99.3333" stroke="white" stroke-width="1.8"/>
<path d="M591.029 121.188C591.563 120.97 624.411 107.532 640.768 100.841" stroke="white" stroke-width="1.8"/>
<path d="M589.522 127.217C590.072 127.104 623.915 120.136 640.768 116.667" stroke="white" stroke-width="1.8"/>
<path d="M590.275 130.232C590.826 130.119 624.669 123.151 641.522 119.681" stroke="white" stroke-width="1.8"/>
<path d="M591.782 109.884C592.3 109.884 624.153 109.884 640.014 109.884" stroke="white" stroke-width="1.8"/>
<path d="M590.275 95.5653C590.818 95.7919 624.163 109.727 640.768 116.667" stroke="white" stroke-width="1.8"/>
<path d="M591.029 99.3334C591.571 99.56 624.917 113.495 641.522 120.435" stroke="white" stroke-width="1.8"/>
<path d="M695.029 30.9004C710.277 30.9004 724.161 39.4274 734.267 53.374C744.373 67.3196 750.651 86.6298 750.651 108C750.651 129.37 744.373 148.68 734.267 162.626C724.161 176.573 710.277 185.1 695.029 185.1C679.781 185.1 665.897 176.573 655.791 162.626C645.685 148.68 639.408 129.37 639.408 108C639.408 86.6299 645.685 67.3196 655.791 53.374C665.897 39.4275 679.781 30.9005 695.029 30.9004Z" fill="white" stroke="white" stroke-width="1.8"/>
<path d="M537.145 33.9149C551.659 33.9149 564.884 42.1409 574.515 55.6111C584.145 69.0797 590.129 87.7323 590.129 108.377C590.129 129.021 584.145 147.674 574.515 161.142C564.884 174.613 551.659 182.839 537.145 182.839C522.631 182.839 509.407 174.613 499.776 161.142C490.146 147.674 484.161 129.021 484.161 108.377C484.161 87.7322 490.146 69.0797 499.776 55.6111C509.407 42.1411 522.631 33.915 537.145 33.9149Z" fill="#91AA8E" stroke="black" stroke-width="1.8"/>
<path d="M694.652 33.9149C709.166 33.9149 722.391 42.1409 732.022 55.6111C741.652 69.0797 747.636 87.7323 747.636 108.377C747.636 129.021 741.652 147.674 732.022 161.142C722.391 174.613 709.166 182.839 694.652 182.839C680.138 182.839 666.914 174.613 657.283 161.142C647.653 147.674 641.668 129.021 641.668 108.377C641.668 87.7322 647.653 69.0797 657.283 55.6111C666.914 42.1411 680.138 33.915 694.652 33.9149Z" fill="#91AA8E" stroke="black" stroke-width="1.8"/>
<circle cx="537.145" cy="78.6088" r="7.76667" fill="#DBD3B9" stroke="black" stroke-width="1.8"/>
<circle cx="694.652" cy="78.6088" r="7.76667" fill="#DBD3B9" stroke="black" stroke-width="1.8"/>
<circle cx="537.145" cy="108" r="7.76667" fill="#DBD3B9" stroke="black" stroke-width="1.8"/>
<circle cx="694.652" cy="108" r="7.76667" fill="#DBD3B9" stroke="black" stroke-width="1.8"/>
<circle cx="537.145" cy="137.391" r="7.76667" fill="#DBD3B9" stroke="black" stroke-width="1.8"/>
<circle cx="694.652" cy="137.391" r="7.76667" fill="#DBD3B9" stroke="black" stroke-width="1.8"/>
<path d="M588.014 137.014H643.783" stroke="white" stroke-width="1.8"/>
<path d="M588.014 140.029H644.536" stroke="white" stroke-width="1.8"/>
<path d="M544.681 137.391L687.493 79.7391" stroke="black" stroke-width="1.8"/>
<path d="M544.681 138.145L687.493 108.754" stroke="black" stroke-width="1.8"/>
<path d="M544.304 138.522H687.87" stroke="black" stroke-width="1.8"/>
<path d="M544.304 108H687.87" stroke="black" stroke-width="1.8"/>
<path d="M586.507 76.7247C587.139 76.7247 625.959 76.7247 645.29 76.7247" stroke="white" stroke-width="1.8"/>
<path d="M544.304 78.6088H687.87" stroke="black" stroke-width="1.8"/>
<path d="M544.681 78.6088L687.493 107.623" stroke="black" stroke-width="1.8"/>
<path d="M544.304 78.6088L687.493 137.768" stroke="black" stroke-width="1.8"/>
<path d="M347.622 160.712L320.304 96.581L310.301 101.525L308.587 98.6304L312.493 97.9473L306.219 62.0801C304.283 51.0099 388.644 36.2538 390.58 47.324L396.464 83.2595L401.541 82.3714L401.302 85.6077L389.747 83.9781L385.506 154.085L411.429 157.309L411.826 152.676C442.913 148.608 438.925 98.1936 415.662 91.7666L416.137 87.5764L406.221 86.1163L406.305 81.9944L409.82 81.3796L403.237 43.7412C397.892 13.1875 288.145 32.3841 293.489 62.9378L299.995 100.133L304.291 99.3819L306.628 103.537L297.015 108.413L298.884 112.193C276.68 130.224 299.728 176.847 322.7 167.809L324.724 172.475L347.622 160.712Z" fill="white" stroke="white" stroke-width="1.8"/>
<path d="M300.51 112.918C305.299 110.497 310.957 111.145 316.29 114.338C321.621 117.529 326.546 123.226 329.75 130.696C332.955 138.166 333.801 145.923 332.621 152.406C331.44 158.893 328.256 164.011 323.467 166.433C318.678 168.854 313.021 168.205 307.687 165.012C302.357 161.821 297.432 156.125 294.227 148.655C291.023 141.185 290.176 133.427 291.356 126.944C292.538 120.457 295.722 115.339 300.51 112.918Z" fill="#4E4B4B" stroke="black" stroke-width="1.8"/>
<rect x="1.158" y="0.421038" width="22.5751" height="66.7445" transform="matrix(0.892429 -0.451188 0.39424 0.919007 297.667 109.077)" fill="#4E4B4B" stroke="black" stroke-width="1.8"/>
<path d="M309.204 104.455L305.466 96.8944" stroke="black" stroke-width="1.8"/>
<path d="M413.989 93.0691C408.663 92.4174 403.561 94.947 399.628 99.761C395.697 104.572 392.998 111.602 392.52 119.716C392.041 127.831 393.878 135.415 397.189 141.112C400.502 146.813 405.234 150.547 410.56 151.199C415.887 151.85 420.988 149.32 424.921 144.506C428.852 139.695 431.551 132.666 432.03 124.551C432.508 116.437 430.671 108.852 427.36 103.155C424.047 97.4541 419.315 93.7209 413.989 93.0691Z" fill="#4E4B4B" stroke="black" stroke-width="1.8"/>
<rect x="-0.946327" y="0.789118" width="22.5751" height="66.7445" transform="matrix(-0.992595 -0.121467 -0.0588791 0.998265 413.292 87.8674)" fill="#4E4B4B" stroke="black" stroke-width="1.8"/>
<path d="M403.72 87.9227L403.888 79.679" stroke="black" stroke-width="1.8"/>
<path d="M309.825 96.8941L302.004 98.3949L295.863 65.1591L303.683 63.6584L309.825 96.8941Z" fill="#4E4B4B" stroke="black" stroke-width="1.8"/>
<rect x="393.01" y="47.7155" width="8.36392" height="34.258" transform="rotate(-9.92156 393.01 47.7155)" fill="#4E4B4B" stroke="black" stroke-width="1.8"/>
<path d="M392.871 46.9229C390.287 32.1474 301.058 48.5546 303.507 62.5541L295.674 63.9241C290.251 32.9198 395.809 15.0826 401.126 45.479L392.871 46.9229Z" fill="#4E4B4B" stroke="black" stroke-width="1.8"/>
<path d="M71 208.882V174.084H146V187.872H139.684V194.438H146V208.882H71Z" fill="white" stroke="white" stroke-width="1.8"/>
<rect x="75.0578" y="182.206" width="62.9368" height="18.5535" fill="white" stroke="black" stroke-width="1.8"/>
<rect x="72.9" y="175.9" width="16.2" height="31.2" fill="#795E37" stroke="black" stroke-width="1.8"/>
<rect x="89.9" y="186.1" width="10.2" height="54.2" transform="rotate(-90 89.9 186.1)" fill="#795E37" stroke="black" stroke-width="1.8"/>
<rect x="89.9" y="207.1" width="11.2" height="54.2" transform="rotate(-90 89.9 207.1)" fill="#795E37" stroke="black" stroke-width="1.8"/>
<path d="M157 207.798V173H232V186.788H225.684V193.354H232V207.798H157Z" fill="white" stroke="white" stroke-width="1.8"/>
<rect x="161.058" y="181.122" width="62.9368" height="18.5535" fill="white" stroke="black" stroke-width="1.8"/>
<rect x="158.9" y="174.816" width="16.2" height="31.2" fill="#794037" stroke="black" stroke-width="1.8"/>
<rect x="175.9" y="185.016" width="10.2" height="54.2" transform="rotate(-90 175.9 185.016)" fill="#794037" stroke="black" stroke-width="1.8"/>
<rect x="175.9" y="206.016" width="11.2" height="54.2" transform="rotate(-90 175.9 206.016)" fill="#794037" stroke="black" stroke-width="1.8"/>
<rect x="297.9" y="170.688" width="74.9475" height="35.9121" fill="white" stroke="white" stroke-width="1.8"/>
<path d="M319.164 142.9C326.87 142.901 333.15 149.291 333.151 157.217C333.151 165.143 326.87 171.534 319.164 171.534C311.458 171.534 305.178 165.143 305.178 157.217C305.178 149.291 311.459 142.9 319.164 142.9Z" fill="white" stroke="white" stroke-width="1.8"/>
<path d="M351.583 142.9C359.289 142.901 365.57 149.291 365.57 157.217C365.57 165.143 359.289 171.534 351.583 171.534C343.878 171.534 337.597 165.143 337.597 157.217C337.597 149.291 343.878 142.9 351.583 142.9Z" fill="white" stroke="white" stroke-width="1.8"/>
<path d="M391.373 203.607L372.663 197.419V178.731L391.373 174.863V203.607Z" fill="white" stroke="white" stroke-width="1.8"/>
<circle cx="319.495" cy="157.217" r="12.9939" fill="#3D3838" stroke="black" stroke-width="1.8"/>
<circle cx="351.252" cy="157.217" r="12.9939" fill="#3D3838" stroke="black" stroke-width="1.8"/>
<rect x="299.223" y="172.011" width="72.301" height="33.2657" fill="#3D3838" stroke="black" stroke-width="1.8"/>
<path d="M390.049 200.989L372.001 195.45V180.47L390.049 176.841V200.989Z" fill="#3D3838" stroke="black" stroke-width="1.8"/>
<path d="M286.111 206.43C280.896 207.98 275.452 199.774 271.41 192.75C264.626 180.961 296.765 178.88 300.263 182.084C302.413 184.053 294.948 203.804 286.111 206.43Z" fill="white" stroke="white" stroke-width="1.5"/>
<path d="M273.602 186.611C269.252 189.488 277.373 199.427 281.749 203.936C288.997 211.004 300.459 186.552 298.534 183.503C296.61 180.454 279.04 183.015 273.602 186.611Z" fill="#EEBA67" stroke="#010101" stroke-width="1.5"/>
<path d="M282.897 184.189C284.169 182.566 295.746 181.163 297.874 183.756C298.983 188.631 295.176 194.826 293.334 197.608C291.491 200.39 281.236 186.308 282.897 184.189Z" fill="#EBD8A5" stroke="black" stroke-width="1.5"/>
<path d="M411 108.929V191.617C411 191.617 412.279 207.388 451.066 207.388C487.721 207.388 489 191.617 489 191.617V108.929C489 108.929 484.738 94.437 450.213 94.0108C411.429 93.532 411 108.929 411 108.929Z" fill="white" stroke="white"/>
<path d="M450.213 175.921C460.522 175.921 469.832 177.631 476.546 180.378C479.904 181.752 482.589 183.375 484.427 185.152C486.262 186.928 487.222 188.825 487.222 190.766C487.221 192.706 486.262 194.603 484.427 196.379C482.589 198.156 479.904 199.778 476.546 201.152C469.832 203.899 460.522 205.609 450.213 205.609C439.904 205.609 430.594 203.899 423.88 201.152C420.522 199.778 417.837 198.156 416 196.379C414.164 194.603 413.205 192.706 413.205 190.766C413.205 188.825 414.164 186.928 416 185.152C417.837 183.375 420.522 181.752 423.88 180.378C430.594 177.631 439.904 175.921 450.213 175.921Z" fill="#D9D9D9" stroke="black"/>
<path d="M450.213 150.347C460.517 150.347 469.823 152.199 476.533 155.173C479.889 156.66 482.573 158.418 484.412 160.345C486.248 162.269 487.222 164.338 487.222 166.47C487.222 168.602 486.248 170.671 484.412 172.595C482.573 174.522 479.889 176.28 476.533 177.767C469.823 180.741 460.517 182.593 450.213 182.593C439.908 182.593 430.603 180.741 423.893 177.767C420.538 176.28 417.853 174.522 416.015 172.595C414.178 170.671 413.205 168.602 413.205 166.47C413.205 164.338 414.178 162.269 416.015 160.345C417.853 158.418 420.538 156.66 423.893 155.173C430.603 152.199 439.908 150.347 450.213 150.347Z" fill="#D9D9D9" stroke="black"/>
<path d="M450.213 123.068C460.517 123.068 469.823 124.921 476.533 127.894C479.889 129.382 482.573 131.14 484.412 133.066C486.248 134.99 487.222 137.059 487.222 139.191C487.222 141.323 486.248 143.392 484.412 145.316C482.573 147.243 479.889 149.001 476.533 150.488C469.823 153.462 460.517 155.314 450.213 155.314C439.908 155.314 430.603 153.462 423.893 150.488C420.538 149.001 417.853 147.243 416.015 145.316C414.178 143.392 413.205 141.323 413.205 139.191C413.205 137.059 414.178 134.99 416.015 133.066C417.853 131.14 420.538 129.382 423.893 127.894C430.603 124.921 439.908 123.068 450.213 123.068Z" fill="#D9D9D9" stroke="black"/>
<path d="M449.787 95.4371C460.157 95.4371 469.716 97.2811 476.646 100.226C480.113 101.7 482.874 103.429 484.754 105.298C486.631 107.165 487.574 109.112 487.574 111.06C487.574 113.008 486.631 114.955 484.754 116.822C482.874 118.692 480.113 120.421 476.646 121.894C469.716 124.839 460.157 126.683 449.787 126.683C439.438 126.683 429.999 124.527 423.181 121.272C419.771 119.644 417.056 117.761 415.207 115.771C413.357 113.781 412.426 111.746 412.426 109.782C412.426 107.834 413.343 105.972 415.165 104.234C416.996 102.488 419.696 100.916 423.11 99.5992C429.934 96.9676 439.394 95.4372 449.787 95.4371Z" fill="#C8DCF4" stroke="black" stroke-width="2"/>
<path d="M412.705 166.896V191.404C412.705 191.404 415.057 206.109 450.213 206.109C485.369 206.109 487.721 191.404 487.721 191.404V166.896C473.044 184.869 427.382 184.869 412.705 166.896Z" fill="#6D92BE" stroke="black" stroke-width="2"/>
<path d="M412.705 141.322V168.045C412.705 168.045 421.48 181.388 450.213 181.388C478.947 181.388 487.721 168.045 487.721 168.045V140.47C473.044 158.816 428.475 155.388 412.705 141.322Z" fill="#C8DCF4" stroke="black" stroke-width="2"/>
<path d="M412.279 112.339L412.705 141.109C412.705 141.109 421.479 155.814 450.213 155.814C478.947 155.814 487.721 141.109 487.721 141.109V111.616C480.902 130.667 425.492 132.798 412.279 112.339Z" fill="#6D92BE" stroke="black" stroke-width="2"/>
<circle cx="423.787" cy="188.208" r="2.40984" fill="white" stroke="black" stroke-width="2"/>
<circle cx="424.639" cy="162.634" r="2.40984" fill="white" stroke="black" stroke-width="2"/>
<circle cx="424.639" cy="136.208" r="2.40984" fill="white" stroke="black" stroke-width="2"/>
</svg>
