<svg width="784" height="417" viewBox="0 0 784 417" fill="none" xmlns="http://www.w3.org/2000/svg">
<rect width="784" height="416" rx="8" fill="white"/>
<path d="M0 112H784" stroke="#657396"/>
<path d="M0 208H784" stroke="#657396"/>
<path d="M0 304H784" stroke="#657396"/>
<path d="M0 64H784" stroke="#657396"/>
<path d="M0 160H784" stroke="#657396"/>
<path d="M0 256H784" stroke="#657396"/>
<path d="M0 352H784" stroke="#657396"/>
<path d="M0 32H784" stroke="#657396"/>
<path d="M0 128H784" stroke="#657396"/>
<path d="M0 224H784" stroke="#657396"/>
<path d="M0 320H784" stroke="#657396"/>
<path d="M0 80H784" stroke="#657396"/>
<path d="M0 176H784" stroke="#657396"/>
<path d="M0 272H784" stroke="#657396"/>
<path d="M0 368H784" stroke="#657396"/>
<path d="M0 48H784" stroke="#657396"/>
<path d="M0 240H784" stroke="#657396"/>
<path d="M0 336H784" stroke="#657396"/>
<path d="M0 96H784" stroke="#657396"/>
<path d="M0 192H784" stroke="#657396"/>
<path d="M0 288H784" stroke="#657396"/>
<path d="M0 384H784" stroke="#657396"/>
<path d="M0 400H784" stroke="#657396"/>
<path d="M16 416.01L16 -4.76837e-06" stroke="#657396"/>
<path d="M528 416.01V-4.76837e-06" stroke="#657396"/>
<path d="M272 416.01V-4.76837e-06" stroke="#657396"/>
<path d="M144 416.01L144 -4.76837e-06" stroke="#657396"/>
<path d="M656 416.01V-4.76837e-06" stroke="#657396"/>
<path d="M400 416.01V-4.76837e-06" stroke="#657396"/>
<path d="M80 416.01L80 -4.76837e-06" stroke="#657396"/>
<path d="M592 416.01V-4.76837e-06" stroke="#657396"/>
<path d="M336 416.01V-4.76837e-06" stroke="#657396"/>
<path d="M208 416.01L208 -4.76837e-06" stroke="#657396"/>
<path d="M720 416.01V-4.76837e-06" stroke="#657396"/>
<path d="M464 416.01V-4.76837e-06" stroke="#657396"/>
<path d="M48 416L48 1.14441e-05" stroke="#657396"/>
<path d="M560 416V1.14441e-05" stroke="#657396"/>
<path d="M304 416V1.14441e-05" stroke="#657396"/>
<path d="M176 416L176 1.14441e-05" stroke="#657396"/>
<path d="M688 416V1.14441e-05" stroke="#657396"/>
<path d="M432 416V1.14441e-05" stroke="#657396"/>
<path d="M112 416L112 0" stroke="#657396"/>
<path d="M624 416V1.14441e-05" stroke="#657396"/>
<path d="M368 416V1.14441e-05" stroke="#657396"/>
<path d="M240 416L240 1.14441e-05" stroke="#657396"/>
<path d="M496 416V1.14441e-05" stroke="#657396"/>
<path d="M32 416.01L32 -4.76837e-06" stroke="#657396"/>
<path d="M544 416.01V-4.76837e-06" stroke="#657396"/>
<path d="M288 416.01V-4.76837e-06" stroke="#657396"/>
<path d="M160 416.01L160 -4.76837e-06" stroke="#657396"/>
<path d="M672 416.01V-4.76837e-06" stroke="#657396"/>
<path d="M416 416.01V-4.76837e-06" stroke="#657396"/>
<path d="M96 416.01L96 -4.76837e-06" stroke="#657396"/>
<path d="M608 416.01V-4.76837e-06" stroke="#657396"/>
<path d="M352 416.01V-4.76837e-06" stroke="#657396"/>
<path d="M224 416.01L224 -4.76837e-06" stroke="#657396"/>
<path d="M736 416.01V-4.76837e-06" stroke="#657396"/>
<path d="M752 416.01V-4.76837e-06" stroke="#657396"/>
<path d="M768 416.01V-4.76837e-06" stroke="#657396"/>
<path d="M480 416.01V-4.76837e-06" stroke="#657396"/>
<path d="M64 416L64 1.14441e-05" stroke="#657396"/>
<path d="M576 416V1.14441e-05" stroke="#657396"/>
<path d="M320 416V1.14441e-05" stroke="#657396"/>
<path d="M192 416L192 1.14441e-05" stroke="#657396"/>
<path d="M704 416V1.14441e-05" stroke="#657396"/>
<path d="M448 416V1.14441e-05" stroke="#657396"/>
<path d="M128 416L128 1.14441e-05" stroke="#657396"/>
<path d="M640 416V1.14441e-05" stroke="#657396"/>
<path d="M384 416V1.14441e-05" stroke="#657396"/>
<path d="M256 416V1.14441e-05" stroke="#657396"/>
<path d="M512 416V1.14441e-05" stroke="#657396"/>
<path d="M0 112H784" stroke="#657396"/>
<path d="M0 208H784" stroke="#657396"/>
<path d="M0 304H784" stroke="#657396"/>
<path d="M0 32H784" stroke="#657396"/>
<path d="M0 16H784" stroke="#657396"/>
<path d="M0 128H784" stroke="#657396"/>
<path d="M0 224H784" stroke="#657396"/>
<path d="M0 320H784" stroke="#657396"/>
<path d="M0 144H784" stroke="#657396"/>
<path d="M0 400H784" stroke="#657396"/>
<path d="M368.5 173.706V169.605C355.5 169.605 330.5 149.605 330.5 120.605C330.5 102.105 334.5 87.763 342.5 77.7631C357.3 59.2638 375.5 58.2632 387.5 59.2632C390.5 59.2632 391.945 67.2632 401 67.2632C406.795 67.2632 439.5 72.1047 439.5 120.605C439.5 151.605 415.496 166.605 402.829 169.605V174.894L411 183.605H420.5V189.105L437 226.105L430.5 229.605L439.5 248.605L436 250.605L427 231.105L422.5 233.105L420.5 227.105V337.105H409.5V356.105H405.5V337.105H394.5V263.105H375.5V335.105H364.5V354.105H360.5V335.105H349.5V228.605L346.5 235.105L342 232.605L332.5 252.605L328 250.605L337.5 230.605L331.5 227.105L350 184.605H362L368.5 175.605V173.706Z" fill="white" stroke="white" stroke-width="2.7"/>
<rect x="395.85" y="258.455" width="23.3" height="77.3" fill="#456288" stroke="black" stroke-width="2.7"/>
<path d="M407.25 337.101V356.108" stroke="black" stroke-width="2.7"/>
<path d="M362.25 335.101V354.108" stroke="black" stroke-width="2.7"/>
<rect x="350.85" y="256.455" width="23.3" height="77.3" fill="#456288" stroke="black" stroke-width="2.7"/>
<rect x="350.85" y="187.889" width="14.5035" height="42.9815" transform="rotate(24.122 350.85 187.889)" fill="#835D37" stroke="black" stroke-width="2.7"/>
<path d="M340.5 229.605L330.5 251.605" stroke="black" stroke-width="2.7"/>
<rect x="-0.680395" y="1.78383" width="14.5035" height="42.9815" transform="matrix(-0.912677 0.408681 0.408681 0.912677 416.171 184.539)" fill="#835D37" stroke="black" stroke-width="2.7"/>
<path d="M427.87 227.605L437.87 249.605" stroke="black" stroke-width="2.7"/>
<rect x="374.85" y="146.455" width="20.3" height="41.3" fill="#C59966" stroke="black" stroke-width="2.7"/>
<rect x="350.85" y="185.455" width="68.3" height="76.3" fill="#835D37" stroke="black" stroke-width="2.7"/>
<rect x="398.033" y="173.014" width="16.1449" height="19.4813" transform="rotate(44.3747 398.033 173.014)" fill="#835D37" stroke="black" stroke-width="2.7"/>
<rect x="0.234679" y="1.89471" width="16.1449" height="18.3094" transform="matrix(-0.614826 0.788662 0.788662 0.614826 370.66 173.21)" fill="#835D37" stroke="black" stroke-width="2.7"/>
<path d="M385 70.4543C413.262 70.4543 436.15 93.1437 436.15 121.105C436.15 149.066 413.262 171.755 385 171.755C356.738 171.755 333.85 149.066 333.85 121.105C333.85 93.1437 356.738 70.4543 385 70.4543Z" fill="#C59966" stroke="black" stroke-width="2.7"/>
<ellipse cx="361.681" cy="118.246" rx="4.18142" ry="4.14159" fill="black"/>
<ellipse cx="378.044" cy="118.246" rx="4.18142" ry="4.14159" fill="black"/>
<path d="M379.7 60.1047C381.798 60.1047 383.814 60.1369 385.493 60.3948C387.109 60.643 388.881 61.1622 390.03 62.5266L390.238 62.7737C391.041 63.3177 391.916 64.127 392.661 64.8079C393.629 65.6917 394.577 66.5536 395.51 67.2034C396.489 67.8859 397.137 68.1047 397.5 68.1047C400.429 68.1049 410.659 68.8175 420.207 75.7502C429.876 82.7712 438.5 95.9192 438.5 120.105V122.105H428.5V109.251C428.183 106.969 426.724 103.721 424.056 100.1C421.381 96.4706 417.615 92.6311 412.973 89.2444C407.088 84.9518 399.859 81.4281 391.725 79.9377C387.668 81.1606 381.679 82.6891 375.348 83.7639C369.656 84.7301 363.539 85.3569 358.26 85.0022C357.976 85.2017 357.695 85.4033 357.42 85.6096C350.49 90.8035 346.085 98.2816 343 105.99V120.105H331.5V118.105C331.5 90.3818 341.883 75.7137 353.347 68.0813C364.667 60.5444 376.69 60.1048 379.7 60.1047Z" fill="black"/>
</svg>
