<svg width="770" height="161" viewBox="0 0 770 161" fill="none" xmlns="http://www.w3.org/2000/svg">
<rect width="770" height="160" rx="4" fill="white"/>
<path d="M0 64H770" stroke="#657396"/>
<path d="M0 16H770" stroke="#657396"/>
<path d="M0 112H770" stroke="#657396"/>
<path d="M0 80H770" stroke="#657396"/>
<path d="M0 32H770" stroke="#657396"/>
<path d="M0 128H770" stroke="#657396"/>
<path d="M0 48H770" stroke="#657396"/>
<path d="M0 144H770" stroke="#657396"/>
<path d="M15.7142 160.01L15.7142 0.0104926" stroke="#657396"/>
<path d="M518.571 160L518.571 0.000488281" stroke="#657396"/>
<path d="M267.143 160V0.000488281" stroke="#657396"/>
<path d="M141.429 160V0.000488281" stroke="#657396"/>
<path d="M644.286 160L644.286 0.000488281" stroke="#657396"/>
<path d="M392.857 160V0.000488281" stroke="#657396"/>
<path d="M78.5714 160L78.5714 0.000488281" stroke="#657396"/>
<path d="M581.429 160L581.429 0.000488281" stroke="#657396"/>
<path d="M330 160V0.000488281" stroke="#657396"/>
<path d="M204.286 160V0.000488281" stroke="#657396"/>
<path d="M707.143 160V0.000488281" stroke="#657396"/>
<path d="M455.714 160L455.714 0.000488281" stroke="#657396"/>
<path d="M47.1428 159.989L47.1428 0.000488281" stroke="#657396"/>
<path d="M550 159.989L550 0.000488281" stroke="#657396"/>
<path d="M298.571 159.989V0.000488281" stroke="#657396"/>
<path d="M172.857 159.989V0.000488281" stroke="#657396"/>
<path d="M675.714 159.989V0.000488281" stroke="#657396"/>
<path d="M424.286 159.989L424.286 0.000488281" stroke="#657396"/>
<path d="M110 159.989L110 0.000488281" stroke="#657396"/>
<path d="M612.857 159.989L612.857 0.000488281" stroke="#657396"/>
<path d="M361.429 159.989V0.000488281" stroke="#657396"/>
<path d="M235.714 159.989V0.000488281" stroke="#657396"/>
<path d="M487.143 159.989L487.143 0.000488281" stroke="#657396"/>
<path d="M31.4286 160L31.4286 0.000488281" stroke="#657396"/>
<path d="M534.286 160L534.286 0.000488281" stroke="#657396"/>
<path d="M282.857 160V0.000488281" stroke="#657396"/>
<path d="M157.143 160V0.000488281" stroke="#657396"/>
<path d="M660 160L660 0.000488281" stroke="#657396"/>
<path d="M408.571 160V0.000488281" stroke="#657396"/>
<path d="M94.2858 160L94.2858 0.000488281" stroke="#657396"/>
<path d="M597.143 160L597.143 0.000488281" stroke="#657396"/>
<path d="M345.714 160V0.000488281" stroke="#657396"/>
<path d="M220 160V0.000488281" stroke="#657396"/>
<path d="M722.857 160V0.000488281" stroke="#657396"/>
<path d="M738.571 160V0.000244141" stroke="#657396"/>
<path d="M754.286 160.01V0.0104926" stroke="#657396"/>
<path d="M471.429 160L471.429 0.000488281" stroke="#657396"/>
<path d="M62.8572 159.989L62.8572 0.000488281" stroke="#657396"/>
<path d="M565.714 159.989L565.714 0.000488281" stroke="#657396"/>
<path d="M314.286 159.989V0.000488281" stroke="#657396"/>
<path d="M188.571 159.989V0.000488281" stroke="#657396"/>
<path d="M691.429 159.989V0.000488281" stroke="#657396"/>
<path d="M440 159.989L440 0.000488281" stroke="#657396"/>
<path d="M125.714 159.989L125.714 0.000488281" stroke="#657396"/>
<path d="M628.571 159.989L628.571 0.000488281" stroke="#657396"/>
<path d="M377.143 159.989V0.000488281" stroke="#657396"/>
<path d="M251.429 159.989V0.000488281" stroke="#657396"/>
<path d="M502.857 159.989L502.857 0.000488281" stroke="#657396"/>
<path d="M0 64H770" stroke="#657396"/>
<path d="M0 80H770" stroke="#657396"/>
<path d="M0 96H770" stroke="#657396"/>
<mask id="mask0_595_1318" style="mask-type:alpha" maskUnits="userSpaceOnUse" x="0" y="0" width="770" height="161">
<rect y="0.000244141" width="770" height="160" rx="4" fill="#D9D9D9"/>
</mask>
<g mask="url(#mask0_595_1318)">
<path d="M361.92 125.706V121.605C349.152 121.605 324.598 101.605 324.598 72.6047C324.598 54.1047 328.527 39.763 336.384 29.7631C350.919 11.2638 368.795 10.2632 380.58 11.2632C383.527 11.2632 384.946 19.2632 393.839 19.2632C399.53 19.2632 431.652 24.1047 431.652 72.6047C431.652 103.605 408.076 118.605 395.636 121.605V126.894L403.661 135.605H412.991V141.105L429.196 178.105L422.812 181.605L431.652 200.605L428.214 202.605L419.375 183.105L414.955 185.105L412.991 179.105V289.105H402.187V308.105H398.259V289.105H387.455V215.105H368.795V287.105H357.991V306.105H354.062V287.105H343.259V180.605L340.312 187.105L335.893 184.605L326.562 204.605L322.143 202.605L331.473 182.605L325.58 179.105L343.75 136.605H355.536L361.92 127.605V125.706Z" fill="white" stroke="white" stroke-width="1.9"/>
<rect x="0.481953" y="1.26372" width="15.048" height="43.6463" transform="matrix(0.909893 0.414842 -0.402575 0.915387 344.468 138.012)" fill="#835D37" stroke="black" stroke-width="1.9"/>
<rect x="-0.481953" y="1.26372" width="15.048" height="43.6463" transform="matrix(-0.909893 0.414842 0.402575 0.915387 409.304 136.412)" fill="#835D37" stroke="black" stroke-width="1.9"/>
<rect x="367.78" y="98.0547" width="20.6893" height="42.1" fill="#C59966" stroke="black" stroke-width="1.9"/>
<rect x="344.209" y="137.055" width="67.8321" height="77.1" fill="#835D37" stroke="black" stroke-width="1.9"/>
<rect x="0.0147913" y="1.35547" width="16.7738" height="20.0885" transform="matrix(0.708453 0.705758 -0.692883 0.72105 391.849 123.472)" fill="#835D37" stroke="black" stroke-width="1.9"/>
<rect x="0.166555" y="1.34492" width="16.8184" height="18.8768" transform="matrix(-0.607928 0.793992 0.783249 0.621708 364.351 125.042)" fill="#835D37" stroke="black" stroke-width="1.9"/>
<path d="M378.125 22.0549C406.07 22.0549 428.737 44.903 428.737 73.1047C428.737 101.306 406.07 124.155 378.125 124.155C350.18 124.155 327.513 101.306 327.513 73.1047C327.513 44.903 350.18 22.0549 378.125 22.0549Z" fill="#C59966" stroke="black" stroke-width="1.9"/>
<ellipse cx="369.464" cy="70.1418" rx="4.10675" ry="4.14159" fill="black"/>
<ellipse cx="385.534" cy="70.1418" rx="4.10675" ry="4.14159" fill="black"/>
<path d="M372.919 12.1047C374.979 12.1047 376.964 12.1369 378.619 12.3958C380.215 12.6453 381.968 13.1682 383.103 14.5393L383.304 14.7834C384.096 15.3299 384.956 16.1413 385.687 16.8206C386.637 17.7048 387.568 18.5649 388.482 19.2131C389.444 19.8962 390.067 20.1046 390.402 20.1047C393.289 20.1049 403.351 20.8195 412.739 27.76C422.243 34.7866 430.705 47.9334 430.705 72.1047V74.1047H420.813V61.2512C420.502 58.9613 419.066 55.708 416.445 52.0852C413.818 48.4562 410.12 44.6192 405.564 41.2346C399.791 36.9471 392.704 33.4295 384.733 31.9397C380.747 33.1624 374.87 34.6891 368.656 35.7629C363.073 36.7279 357.069 37.3551 351.88 37.0032C351.607 37.1987 351.337 37.3968 351.073 37.5989C344.27 42.7901 339.942 50.2686 336.91 57.9827V72.1047H325.544V70.1047C325.544 42.3973 335.734 27.7291 347.003 20.0901C358.133 12.5459 369.955 12.1049 372.919 12.1047Z" fill="black"/>
</g>
</svg>
