<svg width="637" height="339" viewBox="0 0 637 339" fill="none" xmlns="http://www.w3.org/2000/svg">
<rect width="637.004" height="338.002" rx="4" fill="white"/>
<path d="M0 91.0005H637.004" stroke="#657396"/>
<path d="M0 169.001H637.004" stroke="#657396"/>
<path d="M0 247.001H637.004" stroke="#657396"/>
<path d="M0 52.0003H637.004" stroke="#657396"/>
<path d="M0 130.001H637.004" stroke="#657396"/>
<path d="M0 208.001H637.004" stroke="#657396"/>
<path d="M0 286.002H637.004" stroke="#657396"/>
<path d="M0 26.0002H637.004" stroke="#657396"/>
<path d="M0 104.001H637.004" stroke="#657396"/>
<path d="M0 182.001H637.004" stroke="#657396"/>
<path d="M0 260.002H637.004" stroke="#657396"/>
<path d="M0 65.0004H637.004" stroke="#657396"/>
<path d="M0 143.001H637.004" stroke="#657396"/>
<path d="M0 221.001H637.004" stroke="#657396"/>
<path d="M0 299.002H637.004" stroke="#657396"/>
<path d="M0 39.0002H637.004" stroke="#657396"/>
<path d="M0 195.001H637.004" stroke="#657396"/>
<path d="M0 273.002H637.004" stroke="#657396"/>
<path d="M0 78.0005H637.004" stroke="#657396"/>
<path d="M0 156.001H637.004" stroke="#657396"/>
<path d="M0 234.001H637.004" stroke="#657396"/>
<path d="M0 312.002H637.004" stroke="#657396"/>
<path d="M0 325.002H637.004" stroke="#657396"/>
<path d="M13.0001 338.01L13.0001 4.76837e-06" stroke="#657396"/>
<path d="M429.003 338.01V4.76837e-06" stroke="#657396"/>
<path d="M221.001 338.01L221.001 4.76837e-06" stroke="#657396"/>
<path d="M117.001 338.01L117.001 4.76837e-06" stroke="#657396"/>
<path d="M533.003 338.01V4.76837e-06" stroke="#657396"/>
<path d="M325.002 338.01V4.76837e-06" stroke="#657396"/>
<path d="M65.0004 338.01L65.0004 4.76837e-06" stroke="#657396"/>
<path d="M481.003 338.01V4.76837e-06" stroke="#657396"/>
<path d="M273.002 338.01V4.76837e-06" stroke="#657396"/>
<path d="M169.001 338.01L169.001 4.76837e-06" stroke="#657396"/>
<path d="M585.003 338.01V4.76837e-06" stroke="#657396"/>
<path d="M377.002 338.01V4.76837e-06" stroke="#657396"/>
<path d="M39.0002 338.002L39.0002 1.14441e-05" stroke="#657396"/>
<path d="M455.003 338.002V1.14441e-05" stroke="#657396"/>
<path d="M247.001 338.002L247.001 1.14441e-05" stroke="#657396"/>
<path d="M143.001 338.002L143.001 1.14441e-05" stroke="#657396"/>
<path d="M559.003 338.002V1.14441e-05" stroke="#657396"/>
<path d="M351.002 338.002V1.14441e-05" stroke="#657396"/>
<path d="M91.0005 338.002L91.0005 -5.72205e-06" stroke="#657396"/>
<path d="M507.003 338.002V1.14441e-05" stroke="#657396"/>
<path d="M299.002 338.002V1.14441e-05" stroke="#657396"/>
<path d="M195.001 338.002L195.001 1.14441e-05" stroke="#657396"/>
<path d="M403.002 338.002V1.14441e-05" stroke="#657396"/>
<path d="M26.0001 338.01L26.0001 4.76837e-06" stroke="#657396"/>
<path d="M442.003 338.01V4.76837e-06" stroke="#657396"/>
<path d="M234.001 338.01L234.001 4.76837e-06" stroke="#657396"/>
<path d="M130.001 338.01L130.001 4.76837e-06" stroke="#657396"/>
<path d="M546.003 338.01V4.76837e-06" stroke="#657396"/>
<path d="M338.002 338.01V4.76837e-06" stroke="#657396"/>
<path d="M78.0004 338.01L78.0004 4.76837e-06" stroke="#657396"/>
<path d="M494.003 338.01V4.76837e-06" stroke="#657396"/>
<path d="M286.002 338.01V4.76837e-06" stroke="#657396"/>
<path d="M182.001 338.01L182.001 4.76837e-06" stroke="#657396"/>
<path d="M598.003 338.01V4.76837e-06" stroke="#657396"/>
<path d="M611.003 338.01V4.76837e-06" stroke="#657396"/>
<path d="M624.004 338.01V4.76837e-06" stroke="#657396"/>
<path d="M390.002 338.01V4.76837e-06" stroke="#657396"/>
<path d="M52.0003 338.002L52.0003 1.14441e-05" stroke="#657396"/>
<path d="M468.003 338.002V1.14441e-05" stroke="#657396"/>
<path d="M260.002 338.002V1.14441e-05" stroke="#657396"/>
<path d="M156.001 338.002L156.001 1.14441e-05" stroke="#657396"/>
<path d="M572.003 338.002V1.14441e-05" stroke="#657396"/>
<path d="M364.002 338.002V1.14441e-05" stroke="#657396"/>
<path d="M104.001 338.002L104.001 1.14441e-05" stroke="#657396"/>
<path d="M520.003 338.002V1.14441e-05" stroke="#657396"/>
<path d="M312.002 338.002V1.14441e-05" stroke="#657396"/>
<path d="M208.001 338.002L208.001 1.14441e-05" stroke="#657396"/>
<path d="M416.002 338.002V1.14441e-05" stroke="#657396"/>
<path d="M0 91.0005H637.004" stroke="#657396"/>
<path d="M0 169.001H637.004" stroke="#657396"/>
<path d="M0 247.001H637.004" stroke="#657396"/>
<path d="M0 26.0002H637.004" stroke="#657396"/>
<path d="M0 13.0001H637.004" stroke="#657396"/>
<path d="M0 104.001H637.004" stroke="#657396"/>
<path d="M0 182.001H637.004" stroke="#657396"/>
<path d="M0 260.002H637.004" stroke="#657396"/>
<path d="M0 117.001H637.004" stroke="#657396"/>
<path d="M0 325.002H637.004" stroke="#657396"/>
<path d="M299.408 141.137V137.805C288.845 137.805 268.533 121.555 268.533 97.9919C268.533 82.9605 271.783 71.3079 278.283 63.1829C290.308 48.1521 305.096 47.3391 314.846 48.1516C317.283 48.1516 318.457 54.6517 325.814 54.6517C330.523 54.6517 357.096 58.5854 357.096 97.9919C357.096 123.18 337.592 135.367 327.301 137.805V142.102L333.939 149.18H341.658V153.648L355.065 183.711L349.783 186.555L357.096 201.993L354.252 203.618L346.939 187.774L343.283 189.399L341.658 184.524V273.899H332.721V289.337H329.471V273.899H320.533V213.774H305.096V272.274H296.158V287.712H292.908V272.274H283.97V185.742L281.533 191.024L277.877 188.992L270.158 205.243L266.502 203.618L274.22 187.367L269.345 184.524L284.377 149.992H294.127L299.408 142.68V141.137Z" fill="white" stroke="white" stroke-width="1.9"/>
<rect x="321.483" y="209.849" width="19.2251" height="63.1004" fill="#456288" stroke="black" stroke-width="1.9"/>
<path d="M330.893 273.896V289.339" stroke="black" stroke-width="1.9"/>
<path d="M294.33 272.271V287.714" stroke="black" stroke-width="1.9"/>
<rect x="284.92" y="208.224" width="19.2251" height="63.1004" fill="#456288" stroke="black" stroke-width="1.9"/>
<rect x="284.993" y="152.466" width="12.0779" height="35.2165" transform="rotate(24.122 284.993 152.466)" fill="#835D37" stroke="black" stroke-width="1.9"/>
<path d="M276.658 186.555L268.533 204.43" stroke="black" stroke-width="1.9"/>
<rect x="-0.478797" y="1.25529" width="12.0779" height="35.2165" transform="matrix(-0.912677 0.408681 0.408681 0.912677 338.362 149.891)" fill="#835D37" stroke="black" stroke-width="1.9"/>
<path d="M347.647 184.93L355.772 202.805" stroke="black" stroke-width="1.9"/>
<rect x="304.421" y="118.848" width="16.7876" height="33.8502" fill="#C59966" stroke="black" stroke-width="1.9"/>
<rect x="284.92" y="150.536" width="55.7878" height="62.2879" fill="#835D37" stroke="black" stroke-width="1.9"/>
<rect x="323.402" y="140.367" width="13.4116" height="16.1224" transform="rotate(44.3747 323.402 140.367)" fill="#835D37" stroke="black" stroke-width="1.9"/>
<rect x="0.165144" y="1.33331" width="13.4116" height="15.1702" transform="matrix(-0.614826 0.788662 0.788662 0.614826 301.284 140.675)" fill="#835D37" stroke="black" stroke-width="1.9"/>
<path d="M312.814 57.0981C335.856 57.0981 354.521 75.5971 354.521 98.3979C354.521 121.199 335.856 139.699 312.814 139.699C289.772 139.699 271.108 121.199 271.108 98.3979C271.108 75.5972 289.772 57.0982 312.814 57.0981Z" fill="#C59966" stroke="black" stroke-width="1.9"/>
<ellipse cx="293.868" cy="96.0757" rx="3.39742" ry="3.36506" fill="black"/>
<ellipse cx="307.163" cy="96.0757" rx="3.39742" ry="3.36506" fill="black"/>
<path d="M308.508 48.4604C310.21 48.4603 311.875 48.4862 313.271 48.7006C314.604 48.9055 316.163 49.3434 317.188 50.561L317.326 50.725C317.999 51.1896 318.714 51.852 319.293 52.3803C320.082 53.1017 320.835 53.7842 321.569 54.2953C322.349 54.8391 322.795 54.9604 322.971 54.9604C325.393 54.9606 333.795 55.5465 341.641 61.2436C349.609 67.0294 356.659 77.8349 356.659 97.5864V99.5864H347.784V88.7953C347.532 87.0309 346.388 84.4614 344.246 81.5541C342.096 78.6374 339.064 75.5449 335.322 72.8149C330.599 69.3694 324.807 66.5435 318.295 65.3354C314.987 66.3285 310.148 67.5601 305.034 68.4282C300.45 69.2061 295.502 69.7167 291.197 69.4448C291.005 69.5805 290.817 69.7182 290.63 69.8578C285.095 74.0061 281.557 79.9859 279.064 86.1948V97.9604H268.97V95.9604C268.97 73.3272 277.456 61.2842 286.888 55.0043C296.177 48.8201 306.035 48.4605 308.508 48.4604Z" fill="black"/>
</svg>
