<svg width="352" height="161" viewBox="0 0 352 161" fill="none" xmlns="http://www.w3.org/2000/svg">
<rect y="0.000244141" width="352" height="160" rx="4" fill="white"/>
<path d="M0 63.9998H352" stroke="#657396"/>
<path d="M0 15.9998H352" stroke="#657396"/>
<path d="M0 112H352" stroke="#657396"/>
<path d="M0 79.9998H352" stroke="#657396"/>
<path d="M0 31.9998H352" stroke="#657396"/>
<path d="M0 128H352" stroke="#657396"/>
<path d="M0 47.9998H352" stroke="#657396"/>
<path d="M0 144H352" stroke="#657396"/>
<path d="M16 160.01L16 0.0102484" stroke="#657396"/>
<path d="M272 160V0.000244141" stroke="#657396"/>
<path d="M144 160V0.000244141" stroke="#657396"/>
<path d="M80 160L80 0.000244141" stroke="#657396"/>
<path d="M336 160V0.000244141" stroke="#657396"/>
<path d="M208 160V0.000244141" stroke="#657396"/>
<path d="M48 159.989L48 0.000244141" stroke="#657396"/>
<path d="M304 159.989V0.000244141" stroke="#657396"/>
<path d="M176 159.989V0.000244141" stroke="#657396"/>
<path d="M112 159.989L112 0.000244141" stroke="#657396"/>
<path d="M240 159.989V0.000244141" stroke="#657396"/>
<path d="M32 160L32 0.000244141" stroke="#657396"/>
<path d="M288 160V0.000244141" stroke="#657396"/>
<path d="M160 160V0.000244141" stroke="#657396"/>
<path d="M96 160L96 0.000244141" stroke="#657396"/>
<path d="M224 160V0.000244141" stroke="#657396"/>
<path d="M64 159.989L64 0.000244141" stroke="#657396"/>
<path d="M320 159.989V0.000244141" stroke="#657396"/>
<path d="M192 159.989V0.000244141" stroke="#657396"/>
<path d="M128 159.989V0.000244141" stroke="#657396"/>
<path d="M256 159.989V0.000244141" stroke="#657396"/>
<path d="M0 63.9998H352" stroke="#657396"/>
<path d="M0 79.9998H352" stroke="#657396"/>
<path d="M0 95.9998H352" stroke="#657396"/>
<mask id="mask0_595_1203" style="mask-type:alpha" maskUnits="userSpaceOnUse" x="0" y="0" width="352" height="160">
<rect width="352" height="160" rx="4" fill="#D9D9D9"/>
</mask>
<g mask="url(#mask0_595_1203)">
<path d="M154.691 132.588V129.278C144.197 129.278 124.018 113.134 124.018 89.726C124.018 74.7933 127.247 63.2171 133.704 55.1454C145.65 40.2132 160.341 39.4055 170.027 40.2127C172.448 40.2127 173.614 46.6701 180.924 46.6701C185.601 46.6701 212 50.578 212 89.726C212 114.748 192.625 126.856 182.4 129.278V133.547L188.996 140.578H196.664V145.018L209.982 174.883L204.735 177.708L212 193.044L209.175 194.659L201.91 178.919L198.278 180.533L196.664 175.69V264.479H187.785V279.816H184.556V264.479H175.677V204.748H160.341V262.865H151.462V278.201H148.233V262.865H139.354V176.901L136.933 182.148L133.3 180.13L125.632 196.273L122 194.659L129.668 178.515L124.825 175.69L139.758 141.385H149.444L154.691 134.121V132.588Z" fill="white" stroke="white" stroke-width="2"/>
<rect x="140.398" y="143.917" width="11.8862" height="34.873" transform="rotate(24.122 140.398 143.917)" fill="#835D37" stroke="black" stroke-width="2"/>
<rect x="-0.503996" y="1.32136" width="11.8862" height="34.873" transform="matrix(-0.912677 0.408681 0.408681 0.912677 193.304 141.303)" fill="#835D37" stroke="black" stroke-width="2"/>
<rect x="159.726" y="110.502" width="16.565" height="33.5157" fill="#C59966" stroke="black" stroke-width="2"/>
<rect x="140.354" y="141.982" width="55.3094" height="61.7668" fill="#835D37" stroke="black" stroke-width="2"/>
<rect x="178.528" y="131.902" width="13.2112" height="15.9042" transform="rotate(44.3747 178.528 131.902)" fill="#835D37" stroke="black" stroke-width="2"/>
<rect x="0.173836" y="1.40349" width="13.2112" height="14.9582" transform="matrix(-0.614826 0.788662 0.788662 0.614826 156.508 132.152)" fill="#835D37" stroke="black" stroke-width="2"/>
<path d="M168.009 49.1565C190.87 49.1566 209.385 67.5096 209.385 90.1292C209.385 112.749 190.87 131.103 168.009 131.103C145.148 131.103 126.632 112.749 126.632 90.1292C126.633 67.5095 145.149 49.1565 168.009 49.1565Z" fill="#C59966" stroke="black" stroke-width="2"/>
<ellipse cx="160.891" cy="87.738" rx="3.37513" ry="3.34299" fill="black"/>
<ellipse cx="174.098" cy="87.738" rx="3.37513" ry="3.34299" fill="black"/>
<path d="M163.73 40.5063C165.421 40.5063 167.076 40.5314 168.465 40.7446C169.79 40.9482 171.342 41.3847 172.364 42.5981L172.5 42.7593C173.169 43.2212 173.879 43.879 174.452 44.4028C175.237 45.1196 175.985 45.7978 176.713 46.3052C177.487 46.8447 177.928 46.9632 178.099 46.9634C180.506 46.9635 188.855 47.5458 196.653 53.2075C204.573 58.9581 211.578 69.6965 211.578 89.3218V91.3218H202.735V80.5913C202.486 78.8414 201.35 76.2904 199.223 73.4028C197.088 70.5064 194.077 67.4353 190.36 64.7241C185.67 61.3028 179.919 58.4973 173.454 57.2974C170.167 58.2839 165.361 59.5065 160.282 60.3687C155.73 61.1414 150.814 61.65 146.536 61.3804C146.348 61.5141 146.162 61.6501 145.978 61.7876C140.483 65.9062 136.969 71.843 134.493 78.0093V89.7085H124.439V87.7085C124.439 65.22 132.87 53.2508 142.245 47.0093C151.476 40.8638 161.271 40.5065 163.73 40.5063Z" fill="black"/>
</g>
</svg>
