<svg width="20" height="20" viewBox="0 0 20 20" fill="none" xmlns="http://www.w3.org/2000/svg">
<path d="M8.86035 0.000366211C8.87501 0.000857513 8.88965 0.00118318 8.9043 0.00231934C8.91702 0.00331055 8.92977 0.00377631 8.94238 0.00524902L8.97168 0.00915527C8.9884 0.0115998 9.00486 0.0156178 9.02148 0.0189209C9.02863 0.0203473 9.03587 0.0212472 9.04297 0.0228271C9.07048 0.0289232 9.09791 0.0358272 9.125 0.0443115C9.12863 0.0454519 9.13212 0.0470367 9.13574 0.0482178C9.17536 0.061127 9.21466 0.0760096 9.25293 0.0941162L9.30859 0.123413C9.31397 0.126378 9.3189 0.130116 9.32422 0.133179C9.33531 0.139582 9.3465 0.145836 9.35742 0.15271C9.37511 0.163812 9.39222 0.175687 9.40918 0.187866C9.41451 0.191704 9.4205 0.194651 9.42578 0.198608C9.43556 0.205945 9.44467 0.214425 9.4541 0.222046C9.46131 0.227861 9.46854 0.233609 9.47559 0.239624C9.49164 0.253346 9.50748 0.26709 9.52246 0.281616C9.5347 0.293469 9.54598 0.306239 9.55762 0.318726C9.56755 0.329397 9.57752 0.339928 9.58691 0.350952C9.59925 0.365409 9.61054 0.380682 9.62207 0.395874C9.62952 0.405712 9.63748 0.415106 9.64453 0.425171C9.65562 0.440967 9.66558 0.4575 9.67578 0.473999C9.68339 0.486342 9.6912 0.498492 9.69824 0.511108C9.72405 0.557275 9.7462 0.605808 9.76465 0.656616C9.76785 0.665433 9.77146 0.674089 9.77441 0.682983C9.78087 0.70246 9.78571 0.722484 9.79102 0.742554C9.79496 0.757465 9.7985 0.77241 9.80176 0.787476C9.80367 0.796319 9.80691 0.804897 9.80859 0.813843C9.80997 0.821205 9.81031 0.82895 9.81152 0.836304C9.81398 0.851222 9.8156 0.866212 9.81738 0.881226C9.81984 0.901837 9.82208 0.922268 9.82324 0.942749C9.82367 0.950237 9.82396 0.957711 9.82422 0.96521C9.82611 1.0204 9.82343 1.07477 9.81641 1.1283C9.80996 1.17799 9.7992 1.22707 9.78516 1.27576C9.78087 1.29053 9.77644 1.30518 9.77148 1.3197C9.76669 1.33383 9.76132 1.34772 9.75586 1.36169C9.74998 1.37669 9.74487 1.39195 9.73828 1.40662C9.71764 1.45269 9.69224 1.4969 9.66406 1.54041C9.65551 1.55361 9.64686 1.56667 9.6377 1.57947C9.63345 1.58539 9.63037 1.59216 9.62598 1.59802C9.06742 2.34277 8.8047 3.44852 8.91602 4.7572C9.02652 6.05569 9.50063 7.46449 10.2939 8.7113C11.8749 11.1957 14.6029 12.8987 18.083 12.0287C18.0843 12.0284 18.0856 12.028 18.0869 12.0277C18.114 12.021 18.1413 12.0155 18.1689 12.0111C18.1748 12.0102 18.1807 12.009 18.1865 12.0082C18.3353 11.9871 18.4896 12.0008 18.6387 12.0502C18.6484 12.0534 18.6584 12.0555 18.668 12.059C18.6881 12.0663 18.7076 12.0756 18.7275 12.0844C18.7385 12.0892 18.75 12.0928 18.7607 12.098C18.7647 12.0999 18.7685 12.1019 18.7725 12.1039C18.821 12.1282 18.8664 12.1572 18.9092 12.1879C18.9139 12.1913 18.9191 12.1941 18.9238 12.1976C18.9401 12.2097 18.9554 12.2228 18.9707 12.2357C18.9839 12.2469 18.9971 12.2581 19.0098 12.2699C19.0205 12.28 19.0307 12.2906 19.041 12.3011C19.0505 12.3109 19.0602 12.3203 19.0693 12.3304C19.0838 12.3465 19.0971 12.3634 19.1104 12.3802C19.1167 12.3883 19.1228 12.3964 19.1289 12.4047C19.14 12.4197 19.1509 12.4349 19.1611 12.4506C19.19 12.4946 19.2154 12.5412 19.2373 12.5902L19.2383 12.5922C19.25 12.6186 19.261 12.6455 19.2705 12.6732C19.2952 12.7449 19.3114 12.8192 19.3193 12.8949C19.3218 12.9181 19.3234 12.9412 19.3242 12.9642C19.3258 13.0084 19.3237 13.0526 19.3193 13.097C19.3173 13.118 19.3159 13.1389 19.3125 13.1595C19.3001 13.2358 19.2781 13.3113 19.2471 13.3851C19.2394 13.4034 19.2304 13.4211 19.2217 13.4388C19.2207 13.4409 19.2208 13.4436 19.2197 13.4457C17.0892 17.7067 14.0694 19.5718 11.0684 19.9291C8.13788 20.2778 5.36894 19.1706 3.68457 17.767C3.67908 17.7624 3.67431 17.757 3.66895 17.7523C-2.99041 12.1806 -0.141451 1.6629 8.6416 0.0159912C8.64873 0.0146565 8.65596 0.0132619 8.66309 0.012085C8.67831 0.00957634 8.69366 0.00803234 8.70898 0.00622559C8.72792 0.00397936 8.7468 0.00250276 8.76562 0.00134277C8.78058 0.000431081 8.79555 0.000608409 8.81055 0.000366211C8.82723 8.97496e-05 8.8438 -0.000188041 8.86035 0.000366211ZM7.06055 2.56384C1.45395 4.93434 0.162572 12.2269 4.96582 16.2299C6.2813 17.326 8.51287 18.2187 10.832 17.9427C12.6991 17.7205 14.7246 16.7273 16.4287 14.2572C12.9367 14.3234 10.2108 12.3067 8.60645 9.78552C7.65007 8.28256 7.06234 6.56585 6.92285 4.92712C6.85479 4.1272 6.89297 3.32346 7.06055 2.56384Z" fill="black"/>
</svg>
