<svg width="24" height="24" viewBox="0 0 24 24" fill="none" xmlns="http://www.w3.org/2000/svg">
<rect x="0.625" y="0.625" width="22.75" height="22.75" rx="11.375" stroke="white" stroke-width="1.50"/>
<path d="M11.4727 7.875C12.4567 7.875 13.2036 8.08999 13.6855 8.5459C14.17 9.0043 14.3975 9.73984 14.3975 10.7188V13.8154C14.3975 14.316 14.4343 14.6934 14.5029 14.9531C14.5396 15.0695 14.5931 15.1467 14.6572 15.1953C14.7219 15.2442 14.8095 15.2725 14.9277 15.2725C15.0771 15.2724 15.2042 15.2225 15.3145 15.1182C15.4352 15.0039 15.5127 14.8829 15.5537 14.7568L15.5938 14.6338L15.7158 14.6787L16.043 14.7988L16.1523 14.8389L16.1201 14.9512C16.0163 15.3071 15.8262 15.5942 15.5488 15.8066L15.5479 15.8057C15.276 16.0232 14.9064 16.125 14.4541 16.125C13.9021 16.1249 13.4838 15.9761 13.2441 15.6426L13.2402 15.6377C13.0797 15.3907 12.9767 15.0898 12.9258 14.7393C12.6098 15.1418 12.2308 15.4623 11.7861 15.6973C11.2461 15.9824 10.6559 16.1249 10.0186 16.125C9.41676 16.125 8.90454 15.9827 8.49121 15.6895L8.4873 15.6865V15.6855C8.07881 15.3735 7.8751 14.9405 7.875 14.4004C7.875 13.851 8.13423 13.3707 8.62793 12.9629L8.8125 12.8115C9.25053 12.4634 9.74881 12.1475 10.3066 11.8633C10.7829 11.6092 11.2594 11.3893 11.7363 11.2041C12.1723 11.0349 12.5519 10.8892 12.875 10.7686V10.3057C12.875 9.68813 12.7497 9.25127 12.5215 8.97363L12.5195 8.97168C12.3138 8.70904 11.8981 8.55469 11.2178 8.55469C10.901 8.55472 10.59 8.59421 10.2852 8.67188C10.139 8.70914 10.0438 8.75918 9.98633 8.81348C9.93262 8.8643 9.90723 8.92326 9.90723 8.99805C9.90724 9.03164 9.91111 9.07211 9.9209 9.12012C9.94196 9.17208 9.95829 9.22449 9.9707 9.27734L10.0137 9.40234C10.0511 9.52773 10.0703 9.65665 10.0703 9.78906C10.0703 10.045 9.96798 10.2547 9.76562 10.4053L9.76465 10.4062C9.58209 10.5391 9.36105 10.6025 9.10938 10.6025C8.85934 10.6025 8.64479 10.5152 8.47461 10.3408L8.4707 10.3379C8.30431 10.1542 8.2207 9.93427 8.2207 9.68555C8.22083 9.23388 8.40293 8.86926 8.7627 8.60449C9.07397 8.37326 9.44126 8.20376 9.8623 8.09375L10.0469 8.0498C10.5391 7.93358 11.0144 7.87501 11.4727 7.875ZM12.875 11.3867C12.5328 11.5299 12.1809 11.6937 11.8203 11.8789L11.8193 11.8799C11.4134 12.0833 11.0316 12.3147 10.6738 12.5742C10.3318 12.8311 10.0569 13.1082 9.84766 13.4053L9.84668 13.4072C9.64351 13.6849 9.54297 13.9865 9.54297 14.3145C9.54306 14.6066 9.63013 14.8298 9.79492 14.9971C9.97021 15.1517 10.232 15.2382 10.5996 15.2383C10.9313 15.2383 11.2453 15.1624 11.543 15.0107H11.5449C11.8608 14.8558 12.1341 14.6623 12.3662 14.4316C12.5926 14.1955 12.7608 13.9455 12.875 13.6826V11.3867Z" fill="white" stroke="white" stroke-width="0.50"/>
</svg>
