<svg width="70" height="70" viewBox="0 0 70 70" fill="none" xmlns="http://www.w3.org/2000/svg">
<rect x="2.25" y="2.25" width="65.5" height="65.5" rx="32.75"  stroke-width="4.5"/>
<path d="M33.418 22C36.3892 22 38.6725 22.6752 40.1514 24.1328C41.6355 25.5957 42.3183 27.9266 42.3184 30.9941V40.6719C42.3184 42.226 42.426 43.3922 42.627 44.1924C42.7333 44.5484 42.885 44.7694 43.0547 44.9033C43.2222 45.0354 43.4527 45.1182 43.7822 45.1182C44.1917 45.1181 44.5392 44.9757 44.8486 44.6709C45.199 44.3256 45.4235 43.9643 45.541 43.5879L45.6992 43.0791L46.1973 43.2695L47.1787 43.6465L47.6045 43.8086L47.4814 44.248C47.1665 45.3733 46.5875 46.288 45.7383 46.9688L45.7393 46.9697C44.893 47.6786 43.7453 48 42.3633 48C40.681 47.9999 39.3749 47.5265 38.625 46.4395L38.6182 46.4307L38.6123 46.4209C38.1642 45.7031 37.8658 44.8461 37.6992 43.8623C36.7795 45.0203 35.6883 45.9513 34.4229 46.6475C32.7825 47.5499 30.99 48 29.0547 48C27.2248 48 25.6598 47.5474 24.3936 46.6113L24.3799 46.6016C23.1209 45.6008 22.5 44.2129 22.5 42.5C22.5 40.7498 23.2956 39.221 24.8018 37.9268C26.2517 36.6451 27.9377 35.4959 29.8564 34.4775C31.2887 33.6816 32.7227 32.9936 34.1582 32.4131C35.4326 31.8977 36.5467 31.4544 37.5 31.083V29.7041C37.5 27.7825 37.1251 26.4459 36.4619 25.6055L36.4551 25.5957C35.8728 24.821 34.6793 24.3438 32.6543 24.3438C31.7157 24.3438 30.795 24.4644 29.8916 24.7041C29.4661 24.8171 29.2026 24.9646 29.0508 25.1143C28.9126 25.2505 28.8457 25.4078 28.8457 25.6182C28.8457 25.7145 28.8572 25.8328 28.8848 25.9756C28.9514 26.1482 29.0058 26.3219 29.0439 26.498C29.2383 27.0099 29.3359 27.5423 29.3359 28.0918C29.3358 28.9169 29.0181 29.6046 28.3789 30.0996L28.375 30.1025C27.8016 30.5373 27.1085 30.7422 26.3271 30.7422C25.5384 30.7422 24.8597 30.4544 24.3262 29.8848L24.3193 29.8779L24.3135 29.8711C23.796 29.276 23.5361 28.5669 23.5361 27.7686C23.5362 26.3313 24.093 25.1604 25.2031 24.3086L25.4092 24.1543C26.4495 23.3987 27.6829 22.8671 29.0986 22.5518L29.6543 22.4229C30.9468 22.1415 32.2016 22 33.418 22ZM37.5 33.2617C36.534 33.6886 35.5419 34.1714 34.5264 34.7148L34.5225 34.7178C33.3128 35.349 32.1738 36.0659 31.1074 36.8711L31.1084 36.8721C30.0891 37.6689 29.2718 38.5285 28.6504 39.4473L28.6455 39.4541C28.0485 40.3041 27.7549 41.2259 27.7549 42.2314C27.7549 43.1249 28.0088 43.7944 28.4775 44.292C28.9731 44.7463 29.721 45.0107 30.7998 45.0107C31.7713 45.0107 32.6911 44.7804 33.5654 44.3164L33.5723 44.3125C34.5042 43.8362 35.3107 43.2437 35.9961 42.5361C36.6632 41.8127 37.1616 41.0492 37.5 40.2461V33.2617Z" />
<style>
        rect { stroke: #000; }
        path { fill: #000; stroke: #000; }
        @media (prefers-color-scheme: dark) {
            rect { stroke: #FFF; }
            path { fill: #FFF; stroke: #FFF; }
        }
</style>
</svg>
